<?xml version="1.0" encoding="UTF-8"?>
<svg xmlns="http://www.w3.org/2000/svg" id="Layer_1" version="1.1" viewBox="0 0 38.2 16">
  <defs>
    <style>
      .st0 {
        fill: #fff;
      }
    </style>
  </defs>
  <path class="st0" d="M34.7,4c1.3,0,2.5.6,3.3,1.7V.9c-1.1-.5-2.2-.8-3.5-.8-2,0-4.1.9-5.5,2.4-1.4,1.6-2.1,3.6-2.1,5.6s.7,4.2,2.3,5.7c1.5,1.4,3.4,2.2,5.5,2.2s2.1-.3,3.3-.7v-4.7c-.8,1-2,1.6-3.3,1.6-2.4,0-3.9-1.7-3.9-4.1s1.6-4.1,3.9-4.1M22.6,15.7h3.8V.6h-3.8v15.1ZM13.9,12.2h-.9V3.9h.9c2.4,0,4.2,1.5,4.2,4.2s-1.9,4.2-4.2,4.2M14.7.6h-5.4v15.1h5.4c4,0,7.4-3.3,7.4-7.5S18.7.6,14.7.6M.2,15.6h3.8v-5.9h4.2v-3.3H4v-2.5h4.6V.6H.2v15H.2Z"></path>
</svg>
