<?xml version="1.0" encoding="UTF-8"?>
<svg xmlns="http://www.w3.org/2000/svg" id="Layer_1" version="1.1" viewBox="0 0 300 100">
  <defs>
    <style>
      .st0 {
        fill: #edaa00;
      }
    </style>
  </defs>
  <g>
    <g>
      <path d="M50.3,45.4c-3.8,0-5.3-1.5-5.3-5.6v-10.8l-3.6-.3v-3.4h3.6v-5h4.5v5h4.7v3.7h-4.7v10.7c0,1.8.1,2.2,1.8,2.2s2.4,0,2.9-.1v3.1c-.5.1-2.2.6-3.9.6h0Z"></path>
      <path d="M61.1,30.8v14.1h-4.5v-19.6h4.3v2.2c1.8-1.6,4.2-2.1,6.6-2.1v4.2c-2.3,0-4.9.5-6.4,1.2h0Z"></path>
      <path d="M70,22.3v-4.4h4.7v4.4h-4.7ZM70,44.9v-19.6h4.6v19.6h-4.6Z"></path>
      <path d="M92.1,45.4c-5.6,0-8.1-3.2-8.1-9.1v-2.5c0-6,2.6-9,8.1-9s5.1.5,6,.7v3.5c-2.4-.2-4.1-.3-5.2-.3-2.8,0-4.4.9-4.4,5.1v2.5c0,4.2,1.6,5.2,4.4,5.2s2.7-.1,5.2-.3v3.5c-.9.2-3,.7-6,.7h0Z"></path>
      <path d="M108.4,45.4c-5.6,0-8.7-2.9-8.7-9.1v-2.4c0-6.2,3.1-9.1,8.7-9.1s8.7,2.9,8.7,9.1v2.4c0,6.2-3.1,9.1-8.7,9.1ZM112.7,33.9c0-3.8-1.3-5.1-4.2-5.1s-4.2,1.4-4.2,5.1v2.4c0,3.8,1.3,5.2,4.2,5.2s4.2-1.4,4.2-5.2v-2.4Z"></path>
      <path d="M132.5,44.9v-1.6c-2.3,1.3-4.5,2.1-6.7,2.1-5,0-5.8-3.6-5.8-7.6v-12.4h4.5v12.4c0,2.8.5,3.8,2.8,3.8s3-.5,5-1.3v-14.9h4.5v19.6h-4.4Z"></path>
      <path d="M152.7,44.9v-12.4c0-2.8-.5-3.8-2.7-3.8s-3,.5-5.1,1.3v14.9h-4.5v-19.6h4.3v1.6c2.1-1.2,4.2-2.1,6.3-2.1,5.5,0,6.2,3.2,6.2,7.6v12.4h-4.6Z"></path>
      <path d="M168,45.4c-3.8,0-5.3-1.5-5.3-5.6v-10.8l-3.6-.3v-3.4h3.6v-5h4.5v5h4.7v3.7h-4.7v10.7c0,1.8.1,2.2,1.8,2.2s2.4,0,2.9-.1v3.1c-.5.1-2.2.6-3.9.6h0Z"></path>
      <path d="M175,22.3v-4.4h4.7v4.4h-4.7ZM175,44.9v-19.6h4.6v19.6h-4.6Z"></path>
      <path d="M186.7,36.5v.3c0,2.8.4,4.7,5.1,4.7s4.4-.2,7-.5v3.4c-1.4.3-3.9.8-7.2.8-7,0-9.4-2.7-9.4-9.6v-1.2c0-6.6,2.9-9.8,8.7-9.8s8.7,4.2,8.7,10.2v1.5h-12.9ZM195.1,33.2c0-2.3-.4-4.7-4.2-4.7s-4.2,2.5-4.2,4.7v.3h8.4v-.3Z"></path>
      <path d="M208.6,45.4c-2.7,0-5.7-.5-6.6-.8v-3.3c1,0,3.9.5,6.4.5s3.6-.7,3.6-2.1-.6-1.7-3.4-2.8l-1.5-.6c-3.6-1.5-5.3-3.1-5.3-6.2s2.6-5.3,7.7-5.3,5.1.5,6,.8v3.2c-2.2-.2-4.3-.3-6-.3s-3.3.2-3.3,1.6.7,1.6,3.1,2.5l1.5.6c4.2,1.7,5.6,3,5.6,6.3,0,3.7-2.4,5.9-7.8,5.9h0Z"></path>
      <path d="M232.8,45.4c-2.5,0-4.3-.1-7.8-.6v-27h4.5v7.8c1.4-.7,3.1-.9,4.5-.9,5.3,0,7.8,2.7,7.8,8.7v2.7c0,6.6-3.1,9.2-9.1,9.2h0ZM237.4,33.5c0-3.5-1-4.8-3.9-4.8s-2.8.1-4,.7v11.9c.8,0,1.9.1,3.3.1,3.2,0,4.5-1.2,4.5-5.3v-2.7Z"></path>
      <path d="M255.7,44.9v-1.3c-1.2.8-3.4,1.8-6.1,1.8s-5.7-1.8-5.7-5.6v-.7c0-5.2,3.7-5.9,9.1-5.9h2.3v-1.2c0-2.8-.6-3.3-4-3.3s-3.9.1-6.1.4v-3.1c.8-.3,3.7-1.1,6.8-1.1,6.2,0,7.8,2.1,7.8,7.1v12.9h-4.2ZM255.4,36h-2.4c-3.3,0-4.7.4-4.7,3v.8c0,1.8,1.1,2.3,2.7,2.3s3.7-.8,4.4-1.2v-4.9h0Z"></path>
      <path d="M275.4,44.9v-12.4c0-2.8-.5-3.8-2.7-3.8s-3,.5-5.1,1.3v14.9h-4.5v-19.6h4.3v1.6c2.1-1.2,4.2-2.1,6.3-2.1,5.5,0,6.2,3.2,6.2,7.6v12.4h-4.6Z"></path>
      <path d="M294.6,44.9l-6.8-9.3v9.3h-4.5v-27h4.5v16.2l6.9-8.7h5.2l-7.5,9.4,7.7,10.2h-5.4,0Z"></path>
    </g>
    <path class="st0" d="M30.4,25.1c-3-2.4-5.7-.1-8.1,3.7-2.5,3.8-3.4,10-3.4,10,0-2,0-6.7,2.5-12.1,2.6-5.4,6.8-4.6,6.8-4.6-2.8-2.6-6.6-4.2-10.8-4.2s-7.9,1.6-10.8,4.2c0,0,4.2-.8,6.8,4.6,2.6,5.4,2.5,10.1,2.5,12.1,0,0-.9-6.3-3.4-10-2.5-3.8-5.1-6-8.1-3.7-3,2.4-3,9.1-3,9.1,0,9,7.2,16.3,16.1,16.3s16.1-7.3,16.1-16.3c0,0,0-6.7-3-9.1h0ZM4.8,35.7s-.7-4.3,2.4-4.3,5.1,4.9,5.1,4.9c1.8,4.3,2.7,10.6,2.7,10.6-5.4-1-9.6-5.6-10.2-11.2ZM30,35.7c-.6,5.6-4.8,10.2-10.2,11.2,0,0,.9-6.4,2.7-10.6,0,0,2-4.9,5.1-4.9s2.4,4.3,2.4,4.3Z"></path>
  </g>
  <g>
    <g>
      <path d="M76.8,78.1c-4,0-7-2.8-7-7.2s3.1-7.2,7-7.2,4.1,1.1,4.9,1.8l-.8,1.6c-.5-.7-2.1-1.7-4-1.7-3,0-5.1,2.2-5.1,5.4s2.2,5.4,5.1,5.4,3.2-.7,4.1-1.7l.8,1.4c-.9,1-2.4,2.1-5,2.1h0Z"></path>
      <path d="M86.2,78.1c-1.8,0-3.3-1.1-3.3-3s1.5-2.8,3.7-2.9h2.5v-.5c0-1.4-1-2.2-2.3-2.2s-2.5.6-2.8.8l-.6-1.3c.7-.4,2-1,3.5-1s2.5.4,3.1,1.1c.6.7,1,1.5,1,3.1v5.6h-1.8v-1.2c-.4.4-1.3,1.4-3,1.4h0ZM84.8,75.1c0,.9.7,1.7,2,1.7s2-.8,2.4-1.4v-2.1h-2.2c-1.5.2-2.1.9-2.1,1.8h0Z"></path>
      <path d="M95.2,64v13.9h-1.9v-13.9s1.9,0,1.9,0Z"></path>
      <path d="M98.6,64c.7,0,1.2.5,1.2,1.2s-.5,1.2-1.2,1.2-1.2-.5-1.2-1.2.5-1.2,1.2-1.2ZM99.6,68.3v9.6h-1.9v-9.6h1.9Z"></path>
      <path d="M101,69.9v-1.6h1.4v-1c0-1.3.2-2.1.6-2.6.4-.5,1.2-1,2.3-1s1.6.2,1.6.2v1.4c-.1,0-.7-.2-1.2-.2-1.2,0-1.5.9-1.5,2v1.1h2.2v1.6h-2.2v8h-1.9v-8h-1.4,0Z"></path>
      <path d="M111.8,68.1c2.8,0,5,2,5,5s-2.2,5-5,5-5-2-5-5,2.2-5,5-5ZM114.8,73.1c0-1.9-1.2-3.4-3.1-3.4s-3.1,1.5-3.1,3.4,1.2,3.4,3.1,3.4,3.1-1.5,3.1-3.4Z"></path>
      <path d="M120.5,68.3v1.5s0,0,0,0c.5-1.1,1.3-1.7,2.3-1.7s1,.2,1,.2v1.8h-.2c-.2,0-.5-.2-1-.2-.8,0-1.4.5-1.5.8-.2.3-.6,1-.6,2.4v4.8h-1.9v-9.6h1.9Z"></path>
      <path d="M126.9,68.3v1.6c.5-1.1,1.7-1.8,2.9-1.8,2.7,0,3.4,1.8,3.4,4.1v5.7h-1.9v-5.3c0-1.6-.3-2.8-2-2.8s-2.4,1.5-2.4,3.3v4.8h-1.9v-9.6h1.9,0Z"></path>
      <path d="M136.5,64c.7,0,1.2.5,1.2,1.2s-.5,1.2-1.2,1.2-1.2-.5-1.2-1.2.5-1.2,1.2-1.2ZM137.5,68.3v9.6h-1.9v-9.6h1.9Z"></path>
      <path d="M142.4,78.1c-1.8,0-3.3-1.1-3.3-3s1.5-2.8,3.7-2.9h2.5v-.5c0-1.4-1-2.2-2.3-2.2s-2.5.6-2.8.8l-.6-1.3c.7-.4,2-1,3.5-1s2.5.4,3.1,1.1c.6.7,1,1.5,1,3.1v5.6h-1.8v-1.2c-.4.4-1.3,1.4-3,1.4h0ZM141,75.1c0,.9.7,1.7,2,1.7s2-.8,2.4-1.4v-2.1h-2.2c-1.5.2-2.1.9-2.1,1.8h0Z"></path>
      <path d="M152.2,64l-1.8,4.3h-1.5l1.3-4.3s2,0,2,0Z"></path>
      <path d="M152.6,75.2c.8.8,1.9,1.4,2.8,1.4s1.8-.3,1.8-1.4-1.1-1.2-2.1-1.6h-.4c-1.3-.6-2.4-1.3-2.4-2.8s1.5-2.7,3.2-2.7,2.6.6,3.2,1.3l-.8,1.2c-.6-.6-1.5-1-2.4-1s-1.5.4-1.5,1.2.9,1.1,1.8,1.4l1.3.5c1.1.4,1.8,1.2,1.8,2.5,0,2.1-1.7,3-3.6,3s-2.9-.7-3.7-1.7l.9-1.1h0Z"></path>
    </g>
    <g>
      <path d="M233.2,63.9v5.9c.7-1.2,1.9-1.8,3.3-1.8,2.8,0,4.6,2.1,4.6,5s-1.8,5-4.6,5-2.5-.6-3.3-1.7h0v1.5h-1.8v-13.9h1.9,0ZM239.1,73c0-1.9-1.1-3.4-3-3.4s-3,1.4-3,3.4,1.1,3.4,3,3.4,3-1.5,3-3.4Z"></path>
      <path d="M245.4,78c-1.8,0-3.3-1.1-3.3-3s1.5-2.8,3.7-2.9h2.5v-.5c0-1.4-1-2.2-2.3-2.2s-2.5.6-2.8.8l-.6-1.3c.7-.4,2-1,3.5-1s2.5.4,3.1,1.1c.6.7,1,1.5,1,3.1v5.6h-1.8v-1.2c-.4.4-1.3,1.4-3,1.4h0ZM244,75c0,.9.7,1.7,2,1.7s2-.8,2.4-1.4v-2.1h-2.2c-1.5.2-2.1.9-2.1,1.8h0Z"></path>
      <path d="M254.4,68.2v1.6c.5-1.1,1.7-1.8,2.9-1.8,2.7,0,3.4,1.8,3.4,4.1v5.7h-1.9v-5.3c0-1.6-.3-2.8-2-2.8s-2.4,1.5-2.4,3.3v4.8h-1.9v-9.6h1.9,0Z"></path>
      <path d="M265,63.9v8.2l3.9-3.8h2.2l-3.7,3.6,4.2,6h-2.2l-3.2-4.6-1.1,1v3.6h-1.9v-13.9h1.9,0Z"></path>
    </g>
    <path d="M222.9,72c-1,1.4-3.6,5.2-6.8,8.6h-.2c-.3-.6-.3-1.2-.3-1.9,0-2.9,1-5.9,2.2-8.9,2.2-5.1,3.2-10.2,2.7-11.4-.5-.9-1.6-1-2.1-1.1h0c-.5,1.2-1,2.9-1.3,4-1.2,3.7-2.9,7.9-3.8,12-1.9,2.8-4.7,6.5-5.6,6.5s-.3-1-.3-1.2c0-3.1.8-5.9,1.7-8.8.3-1.2.9-2.3.9-3.6s-1.7-1.2-2.5-1.2-.3,0-.4.2v.2c-.5.8-1.1,1.7-1.6,2.3-.6-.8-2.1-1.3-3.1-1.3-2.1,0-4.3,3.1-5.6,6,0,.1-.2.2-.2.3-1.2,1.7-5.1,6.7-7.2,6.7-.8,0-1.2-1.8-1.2-2.3,0-4.5,3.6-9.2,4.4-9.2.6.4.7,2.5,1,2.7,0,0,.1,0,.2,0,.5,0,1.3-.6,1.3-1.4,0-1.2-.3-1.8-1.1-2.6-.2-.2-2-.6-2.6-.7-.3,0-.5,0-.8.2-.6.4-1.3,1-1.9,1.7-.3-.3-.9-.3-1.6-.3s-1.1,0-1.4,0c-1,0-2.3.4-3.4.7.3-.5.3,0,.5-.6-.4-.6-1.2-1.2-1.9-1.2s-.5,0-.6.1c-.3,0-1.7,2.2-2.9,4.8-.1.2-.2.4-.3.6-1,1.4-3.6,5.2-6.8,8.6h-.2c-.3-.6-.3-1.2-.3-1.9,0-2.9,1-5.9,2.2-8.9,2.2-5.1,3.2-10.2,2.7-11.4-.5-.9-1.6-1-2.1-1.1h0c-.5,1.2-1,2.9-1.3,4-1.7,5.2-4.3,11.3-4.3,17s.7,3.4,2.8,3.8c.2,0,.3,0,.5,0,2,0,3.4-2.3,4.6-3.8.3-.4.7-.9,1-1.4,0,.5,0,1,0,1.4,0,1.8,1.5,2.9,3.2,2.9,1.6,0,3.2-2.4,3.8-3.8.5-1.4,1.4-4.3,1.3-5.9,0-.6-.1-1.3-.4-1.8,1.2-.3,2.4-.6,3.8-.6.2,0,.4,0,.6,0-1.6,2.4-2.9,5.5-2.9,7.8s2.1,4.7,4.5,4.7,4.8-2.3,6.4-4.4c0,0,0,0,0,0,.2,1.5,1.2,3.2,2.9,3.2s5.1-6.2,6.3-8h0c-.5,1.7-.8,3.5-.8,5.2s.5,3.2,2.1,3.8c0,0,.9.3,1.1.3,1.5,0,3.5-2.2,5.1-4.6,0,.4,0,.9,0,1.3,0,1.5.7,3.4,2.8,3.8.2,0,.3,0,.5,0,2,0,3.4-2.3,4.6-3.8.4-.5,1-1.2,1.2-1.8.2,0,.2-.3.4-.4v-.2c0,0,.3,0,.3,0h0c0-.1.1-.2.1-.2,0-.2.6-1.1.7-1.2,0-.2.2-.3.4-.6h-.1c0-.3.2-.4.3-.6-.3.4-.5.7-.8,1.1.2-.5,1.3-2.2,1.3-2.4h0c-.2,0-.2.3-.3.4,0-.2.1-.4.3-.6v-.2s0,0,0,0h0s0-.2,0-.2c0,0,.3-.6.3-.6s0-.2,0-.3c0-.1,0-.2,0-.3v-.2c-.6.6-1.1,1.5-1.5,2.3h0ZM178.7,79.5c0,.1,0,.3-.3.3,0-.2,0-.3,0-.5,0-.9.5-3.4,1.2-5.2.2-.3,1-2.4,1.9-4,0,.2.2.4.2.6.2,2.2-1.3,7.1-2.9,8.8h0ZM198.8,77.9v-.3c0-2.5,2-6.7,3.8-8.4.1-.2.5-.5.8-.5s.8.4.9.6c-1.7,2.7-3.8,5.9-5.6,8.6h0Z"></path>
  </g>
</svg>
