<?xml version="1.0" encoding="UTF-8"?><svg id="Layer_1" xmlns="http://www.w3.org/2000/svg" viewBox="0 0 214.5 94.75"><defs><style>.cls-1{fill:#253746;}.cls-1,.cls-2{stroke-width:0px;}.cls-2{fill:#0072ce;}</style></defs><path class="cls-1" d="M147.74,33.38l33.38,33.38,33.38-33.39L181.12,0l-33.38,33.38ZM211.97,33.38l-30.84,30.85-30.84-30.84,30.84-30.84,30.84,30.84Z"/><path class="cls-2" d="M173.02,13.92l8.1-8.1,27.57,27.57-8.1,8.1-27.57-27.57ZM190.86,51.22l8.1-8.1-17.83-17.83-8.1,8.1,17.83,17.83ZM181.12,60.95l8.1-8.1-8.1-8.1-8.1,8.1,8.1,8.1ZM169.75,33.39l9.74-9.74-8.1-8.1-17.84,17.84,17.83,17.83,8.1-8.1-9.73-9.73Z"/><path class="cls-1" d="M156.78,73.29h3.81l9.1,20.93h-5.2l-1.8-4.43h-8.13l-1.74,4.43h-5.08l9.04-20.93ZM158.56,79.38l-2.54,6.5h5.11l-2.57-6.5Z"/><path class="cls-1" d="M182.18,78.4c-.37-.47-.88-.82-1.52-1.05s-1.25-.34-1.82-.34c-.34,0-.68.04-1.03.12s-.69.2-1,.37c-.32.17-.57.39-.77.66-.2.28-.3.61-.3,1,0,.63.24,1.11.71,1.45s1.07.62,1.79.86c.72.24,1.49.47,2.32.71.83.24,1.6.57,2.32,1s1.32,1.02,1.79,1.74c.47.73.71,1.7.71,2.93s-.22,2.18-.65,3.04c-.43.87-1.02,1.59-1.76,2.16-.74.57-1.6,1-2.57,1.27-.97.28-2,.41-3.09.41-1.36,0-2.62-.21-3.78-.62-1.16-.41-2.25-1.08-3.25-2.01l3.28-3.61c.47.63,1.07,1.12,1.79,1.46.72.34,1.46.52,2.23.52.37,0,.75-.04,1.14-.13.38-.09.73-.22,1.03-.4.31-.18.55-.4.74-.68.19-.28.28-.6.28-.98,0-.63-.24-1.13-.72-1.49-.48-.36-1.09-.67-1.82-.93-.73-.26-1.52-.51-2.36-.77-.85-.26-1.64-.6-2.36-1.03-.73-.43-1.34-1-1.82-1.71-.48-.71-.72-1.64-.72-2.81s.22-2.11.67-2.96c.44-.85,1.03-1.56,1.77-2.13.74-.57,1.59-1,2.56-1.29.97-.29,1.96-.43,2.99-.43,1.18,0,2.32.17,3.43.5,1.1.34,2.1.9,2.99,1.68l-3.16,3.46Z"/><path class="cls-1" d="M188.27,73.29h4.61v20.93h-4.61v-20.93Z"/><path class="cls-1" d="M210.45,78.73c-.45-.55-1.01-.98-1.67-1.27-.66-.3-1.42-.44-2.29-.44s-1.67.17-2.41.5c-.74.34-1.38.8-1.92,1.4-.54.6-.97,1.31-1.27,2.14-.31.83-.46,1.72-.46,2.69s.15,1.89.46,2.7c.31.82.72,1.53,1.26,2.13.53.6,1.16,1.07,1.88,1.4.72.34,1.49.5,2.32.5.95,0,1.78-.2,2.51-.59.73-.39,1.33-.95,1.8-1.65l3.84,2.87c-.89,1.24-2.01,2.16-3.37,2.75s-2.76.89-4.2.89c-1.64,0-3.14-.26-4.52-.77s-2.57-1.25-3.58-2.2c-1-.96-1.79-2.11-2.35-3.47s-.84-2.88-.84-4.55.28-3.19.84-4.55,1.34-2.52,2.35-3.47c1-.96,2.2-1.69,3.58-2.2,1.38-.51,2.89-.77,4.52-.77.59,0,1.21.05,1.85.16.64.11,1.27.28,1.89.52.62.24,1.22.55,1.79.95.57.39,1.08.88,1.54,1.45l-3.55,2.9Z"/><path class="cls-1" d="M43.57,75.93c-.09.14-.19.26-.33.33"/><path class="cls-1" d="M46.59,52.27c.35,0,.63-.29.63-.64s-.28-.64-.63-.64-.63.29-.63.64.28.64.63.64"/><path class="cls-1" d="M75.91,25.54h0s-22.8-.01-22.8-.01h0s0,.01,0,.01l.02,18.41c0,1.78.75,3.33,1.79,3.81l8.77,5.24c.19.22.48.36.8.36.28,0,.52-.11.71-.28l8.91-5.32c1.04-.48,1.79-2.03,1.79-3.81l.02-18.41h0ZM60.69,30.87h-1.97v-4.71h1.97v4.71ZM59.26,32.51l.28-.29-.17-.32.37.04.22-.39.22.39.37-.03-.17.32.28.29-.36.07v.4l-.34-.25-.34.25v-.4l-.36-.07ZM53.76,33.9h2.39v4.48h-2.39v-4.48ZM54.15,31.9l.37.04.22-.39.22.39.37-.03-.17.32.28.29-.36.07v.4l-.34-.25-.34.25v-.4l-.36-.07.28-.29-.17-.32ZM56.85,36.45l.37.04.22-.39.22.38.37-.03-.17.32.28.29-.36.07v.4l-.34-.25-.34.25v-.4l-.36-.07.28-.29-.17-.32ZM58.44,32.85c-.02-.12-.17-.15-.24-.15-.21,0-.3.35-.48.36-.13,0-.23.02-.23-.14,0-.12.27-.21.38-.31-1.48,0-1.51.67-1.74.67-.39,0,.32-.71.53-.92-.3-.05-.47-.42-.8-.6.15-.22.24-.13.43.03,0-.15.12-.33.46-.33.66,0,.48.64.58.64s0-.64.43-.64c.66,0,1.47,1.68.73,1.68-.32,0-.06-.24-.07-.29M56.75,27.93l.28-.3-.17-.32.37.04.22-.39.22.39.37-.04-.17.32.28.3-.36.07v.4l-.34-.25-.34.25v-.4l-.36-.07ZM56.15,30.87h-2.39v-4.71h2.39v4.71ZM60.69,50.48l-5.46-3.26c-.91-.62-1.36-1.72-1.48-3.04v-5.18h6.93v11.48ZM58.72,33.9h1.97v4.48h-1.97v-4.48ZM67.72,50.85l-2.52,1.51h-.04c-.18.14-.41.23-.66.23s-.49-.1-.67-.24l-2.51-1.5v-11.85h6.4v11.85ZM67.72,38.38h-6.4v-12.23h6.4v12.23ZM75.27,44.19c-.12,1.32-.57,2.42-1.48,3.04l-5.46,3.26v-11.48h6.93v5.18ZM75.27,38.38h-6.94v-12.23h6.94v12.23Z"/><path class="cls-1" d="M60.32,43.22c-.03-.07-.87.28-.63.26.02-.25.49-.75.7-.94-.04-.29-.41-.03-.8.18,1.3-1.86.46-1.1-.26-.96,1.16-1.25.86-1.23,0-.84.67-.53.82-1.16.71-1.35-.63.84-1.21.71-1.21,1.49,0,.51-.18,1.36-.45,1.64-.34.37-.08-1.37-.97-1.37-.29,0-.96-.02-1.16.33.18,0,.45.46.45.65s.17.69-.14.69-.66-.64-.66-.95-.02-.23-.02-.67c0-.74-1.2-1.77-1.69-1.77,0,.51.67.64.67,1.29-.28,0-.69-.53-.69-.2s.42.39.42.67-.49-.1-.49.2c0,.27.27.23.33.49-.2-.05-.38-.03-.41.07-.03.09.06.2.21.29-.07.06-.13.21-.13.65,0,1.45.91,2.13,1.58,2.13.48,0,.4-.33.46-.49.02.25.26-.12.26.31s-.46.25-.46.64c0,.52.73-.02.73.56,0,.69-.09.68-.09.95,0,.18.77-.26.72-.33.18.07.17.61.51.59.22,0,.27-.56.44-.6-.1.02.69.51.69.27,0-.68-.28-.39-.28-.86,0-.43.94-.35.79-.57-.12-.18-.21-.07-.31-.39.02.06-.74-1.08.16-.49.94.62,1.05-1.43,1-1.54"/><path class="cls-1" d="M84.65,48.04c.41,0,.75-.3.75-.66s-.34-.66-.75-.66-.75.3-.75.66.33.66.75.66"/><path class="cls-1" d="M81.61,49.84c.41,0,.75-.29.75-.66s-.34-.66-.75-.66-.75.29-.75.66.34.66.75.66"/><path class="cls-1" d="M45.58,54c.41,0,.75-.3.75-.66s-.34-.66-.75-.66-.75.3-.75.66.34.66.75.66"/><path class="cls-1" d="M47.91,54.2c.41,0,.75-.3.75-.66s-.34-.66-.75-.66-.75.29-.75.66.34.66.75.66"/><path class="cls-1" d="M112.79,22.75c1.11,1.32,1.35,3.45.56,4.97-.44-.04-.36-.6-.44-.92-.79-1.48-1.43-3.36-.71-5.05.52.08.32.72.6,1"/><path class="cls-1" d="M17.59,24.55c-.24.96-.24,2.28,0,3.16-.2.2-.16-.2-.36-.16-1.55-1.12-.83-3.32-1.23-4.89.08-.12.28-.16.4-.08.71.48,1.03,1.16,1.19,1.96"/><path class="cls-1" d="M116.21,24.68c.24.44-.2.88-.52,1.08-.36.08-.76-.12-.99-.44-.12-.44.12-.84.48-1.04.4-.04.8.04,1.03.4"/><path class="cls-1" d="M15.16,26.44c-.08.36-.2.72-.52.88-.24,0-.6,0-.76-.2-.24-.2-.28-.56-.16-.84.16-.28.48-.32.76-.36.28.12.56.2.68.52"/><path class="cls-1" d="M117.76,27.12c.08.24.08.4,0,.64-.28.36-.68.52-1.07.36-.28-.16-.36-.44-.44-.68.08-.32.4-.6.67-.72.36,0,.6.2.84.4"/><path class="cls-1" d="M115.49,27.16c.32.16.08.56.04.8-.2.2-.48.52-.83.4-.2-.2-.44-.2-.52-.48,0-.4.16-.8.56-.92.32-.08.52.08.75.2"/><path class="cls-1" d="M112.59,27.76c0,.44.04,1-.48,1.08-.48.16-.79-.24-.91-.56-.04-.4.2-.8.6-.96.32,0,.6.2.79.44"/><path class="cls-1" d="M19.5,27.96c.12.4-.28.64-.52.84-.28.08-.64-.16-.8-.44-.28-.28.08-.52.16-.76.4-.36.99-.08,1.15.36"/><path class="cls-1" d="M17.11,28.08c0,.32-.16.64-.44.76-.32.12-.64-.12-.8-.36-.2-.4.04-.76.36-.92.44-.16.72.24.88.52"/><path class="cls-1" d="M102.97,28.24c.4.84.71,1.84.79,2.89-.16.76.12,1.76-.44,2.28-.56-.2-.59-.88-.95-1.24-.71-1.4-.08-3.05.16-4.41.32-.12.32.28.44.48"/><path class="cls-1" d="M15.24,28.72c.12.48-.24.72-.52,1-.48.12-.8-.24-1-.56-.04-.4.2-.8.52-.96.4-.04.79.16.99.52"/><path class="cls-1" d="M109.25,29.88c.52,1.16.56,2.56.2,3.84l-.24.2c-.56-1.08-1.35-2.08-1.63-3.24,0-.84.16-1.6.48-2.28.28-.2.44.04.56.28.04.44.24.96.64,1.2"/><path class="cls-1" d="M114.26,29.16c-.04.4-.2.84-.6.96-.4.08-.79-.04-.91-.48-.12-.4.12-.76.44-.96.44-.24.88.16,1.07.48"/><path class="cls-1" d="M17.15,30.4c0,.32-.28.68-.6.76-.32.24-.56-.16-.83-.28-.12-.32-.2-.6,0-.92.12-.24.4-.24.64-.32.36.2.71.36.8.76"/><path class="cls-1" d="M18.9,30.2c.16.4-.28.6-.44.8-.48.16-.72-.2-.92-.48-.08-.4.16-.64.44-.88.48-.12.72.2.92.56"/><path class="cls-1" d="M115.37,30.08c-.04.52-.84,1.04-.92,1.56-.44,1.08-1.39,1.88-2.46,2.24-.24.2-.56.48-.92.52-.08-.8.64-1.52,1.07-2.24.83-1.08,1.99-1.77,3.22-2.09"/><path class="cls-1" d="M16.36,31.76c.6.68.91,1.28,1.63,1.88.04.16-.08.4-.28.4-1.95-.12-3.26-2.12-4.21-3.52.12-.44.64-.08.92-.12.68.52,1.43.68,1.95,1.36"/><path class="cls-1" d="M115.93,32.32c-.08,1.72-.92,3.49-2.47,4.33-.44.16-.92.6-1.35.32.84-1.72,2.11-3.13,3.5-4.65h.32Z"/><path class="cls-1" d="M108.3,33.48c.12.6-.2.96-.68,1.16-.44.04-.71-.32-.91-.64-.04-.4.2-.76.56-.88.12-.12.32-.12.48-.12.24.08.36.28.56.48"/><path class="cls-1" d="M14.17,33.85c.76.52,1.43,1.24,2.15,1.88-.52.36-1.15.04-1.75.04-1.35-.48-2.27-1.64-3.66-2.04.04-.44.56-.28.84-.4.87-.08,1.59.32,2.42.52"/><path class="cls-1" d="M56.76,21.99c-2.23-.88-3.7,1.44-5.97,1.16-.28.16-.2.44-.36.64-.12.12-.32.04-.44-.04-.12-.96-.44-1.84-.56-2.77-.24-.4-.12-.96-.32-1.36-1.27-3.48,3.1-.84,3.98-2.88.76-1.76-1.47-1.96-2.15-3.21v-.52c-.64-.64-1.31-.84-1.71-1.68.28-1,.4-2.08.12-3.08-.04-.24-.2-.56-.55-.44-.76,1.04-1.31,1.88-2.03,2.88-.76-.56-1.47-1.28-2.35-1.76-.6-.08-1.15-.68-1.83-.44-.12.24,0,.44.12.6.04,1.56.83,2.81,1.95,3.92l.12.6c-.71,1.64-.52,3.52-.71,5.29-1.79,4.57-4.69,8.97-8.63,12.14-2.27,2.56-4.97,5.05-5.33,8.57-.12.56.08,1.24-.36,1.64-1.31-.48-2.62-1.12-3.7-1.96-1.83-1.28-4.45-1.12-5.65-3.44-.48-.92.12-1.84.56-2.52,1.35-1.28,1.15-3.57.44-5.13-.16-.04-.2.16-.32.2-.12,2.37-1.99,4.01-1.27,6.61.16.76.56,1.24.76,1.96-.28-.08-.67-.08-.92-.2-.87-.12-1.75-.48-2.66-.36-1.83.84-4.33-.2-5.81,1.48-.24.04-.56.08-.48.44.87,0,1.71.24,2.58.2,1.39.24,2.31-.92,3.26-1.44h.24c.4-.4,1.08-.16,1.59-.24,2.51.28,4.45,1.48,6.52,2.72v.16c-.79.36-1.71.6-2.5,1.04-.91.68-1.95,1.56-2.23,2.69-.64,1,.2,1.88.6,2.72.04.4.08.88.44,1.04,1.27-1.36.08-3.04.28-4.61.32-1.2,1.43-1.76,2.58-2.08,2.27-.96,3.9.88,5.73,1.92-.04,1.84.2,3.6-.2,5.41-.56.2-1.27.32-1.87.28-3.14.24-5.61,1.96-8.43,2.92-1.27.44-2.78.4-4.05.88.99.28,2.03-.08,3.06-.12,3.9-.56,6.88-3.57,11.09-3.04l.08.12c-.48,1-1.11,1.84-1.87,2.6-.12-.44-.16-.8-.56-1.04-.32-.16-.68,0-.91.32-.12.2-.12.44,0,.6.2.36.52.44.88.56-.08.36-.52.52-.76.84-1.11,1.88-3.38,1.12-4.69,2.44-.2.28-.91.44-.6.88,1.51.16,2.98-.24,4.1-1.04,1.47-1.64,3.02-3.2,4.49-4.77.24,1.29-.12,2.6-.87,3.65-.36-.2-.64-.48-1.08-.6-.4.08-.67.48-.72.8.16.28.32.6.6.8-1.35.96-3.06,1.04-4.61,1.48-2.9.36-5.73.6-8.67.64-1.39-.08-2.98.4-4.29,0-1.51.28-3.14-.2-4.38.64-.16.2.04.4.04.6,1.83,1.2,4.34.24,6.4.6h15.67c1.15-.04,2.31-.08,3.22-.6,2.03-1.16,3.14-3.25,4.18-5.29.4-.72.68-1.56.83-2.4.4-1.36,1.63-2.32,2.98-2.44.2,2.08-.2,4.16-.67,6.09-.24,1.28-1.07,2.52-.56,3.89.12.64.8.64,1.31.72,4.81-.08,9.62-.28,14.71.08.92.16,1.71.44,2.71.4.08-.12.36-.16.24-.4-.12-.44-.44-1-.95-1.12-.08-.24-.44-.16-.56-.32-2.55-1.44-5.61-.68-8.59-.64-1.55.16-3.1.44-4.41-.44-.6-.72-.16-3-.16-3,0-.91,2.19-7.21,2.47-7.73.08-.6.32-1.16.24-1.84.32-.8.24-1.84.24-2.72.16-1.28.8-2.48,1.23-3.72.24-.6.44-1.24.67-1.84.24-.76.32-1.48.8-2.08,1.3.82,2.57.8,3.19,2.27l.55,3.34c0,.2.16.6.44.36,1.03-.68.71-2.2.71-3.24.24-1.24-.63-1.84-.99-2.92-.28-.2-.74-1.16-.74-1.16-.16-.88-2.09-1.49-1.65-2.57.24-.92.48-1.76,1.35-2.28.13.09.18.18.2.28l.48-.33.05-3.35c1.29,0,3.21.16,4.52.16.36.12.64.4,1.03.44l.32-.44,3.22-.63c-1.37.15-2.2-1.42-3.5-1.42"/><path class="cls-1" d="M60.26,23.41c.1,0,.19-.03.3-.06l-.3.06Z"/><path class="cls-1" d="M25.62,34.57c.04.48-.24.76-.6.92-.32-.12-.55-.16-.75-.48-.16-.44.24-.76.55-.92.32.08.72.12.8.48"/><path class="cls-1" d="M23.04,34.57c.24.24.28.64.16.92-.28.24-.72.44-.95.12-.24-.24-.48-.52-.28-.84.28-.28.76-.52,1.07-.2"/><path class="cls-1" d="M78.39,35.01s.02.04.03.06"/><path class="cls-1" d="M108.69,35.69c.16.44-.2.76-.52.92-.4-.12-.92-.2-.92-.72.04-.32.32-.52.6-.6.36-.12.68.16.84.4"/><path class="cls-1" d="M110.8,35.61c.12.2.4.52.08.72-.16.12-.28.16-.4.32-.44.08-.83-.08-.95-.48-.08-.44.28-.64.6-.84.28-.08.48.12.68.28"/><path class="cls-1" d="M13.06,36.09c-.16.48-.56.68-1.07.52-.12-.12-.24-.32-.32-.52.04-.28.12-.56.44-.68.48.04.83.24.95.68"/><path class="cls-1" d="M26.46,36.77c-.04.32-.4.6-.68.76-.4.04-.68-.28-.88-.56,0-.32.16-.72.48-.8.44-.16.91.16,1.07.6"/><path class="cls-1" d="M24.11,36.49c.12.12.24.44.12.64-.24.2-.6.56-.99.32-.24-.2-.52-.36-.44-.76.16-.16.36-.4.6-.48.32-.08.48.12.72.28"/><path class="cls-1" d="M116.89,36.97c0,.32-.32.64-.52.76-.32.12-.68.04-.88-.2-.24-.08-.16-.4-.16-.6.2-.28.48-.44.75-.52.36.08.6.32.8.56"/><path class="cls-1" d="M119.43,37.33c-.12.36-.4.68-.76.72-.24-.04-.68-.12-.6-.48,0-.28.16-.56.36-.64.4-.2.87,0,.99.4"/><path class="cls-1" d="M17.59,37.89c.08.48-.08.8-.48.96-.28.16-.56-.04-.75-.2-.2-.2-.36-.52-.2-.8.08-.36.44-.28.67-.44.36.04.56.2.76.48"/><path class="cls-1" d="M19.54,38.25c.12.32-.24.44-.32.68-.2.12-.48.24-.72.08-.28-.24-.6-.6-.32-.96.32-.6,1.15-.28,1.35.2"/><path class="cls-1" d="M114.54,38.05c.04.4-.32.68-.56.92-.36.08-.72-.16-.8-.48-.04-.32.16-.56.44-.76.36-.04.72,0,.91.32"/><path class="cls-1" d="M117.8,38.69c-.08.36-.04.76-.44,1-.32.08-.71.04-.95-.16-.24-.2-.28-.56-.16-.84.2-.32.56-.56.95-.48.28.16.36.36.6.48"/><path class="cls-1" d="M16.08,39.53c.16.32-.2.4-.32.56-.28.16-.56.04-.79-.08-.28-.16-.16-.56-.12-.76.36-.68,1.07-.2,1.23.28"/><path class="cls-1" d="M115.29,40.29c.16.04.08.28.04.36-.95.48-2.38.6-3.22-.16-.48-.4-1.07-.56-1.59-.88.2-.52.91-.48,1.43-.6,1.15.16,2.07,1.24,3.34,1.28"/><path class="cls-1" d="M17.99,39.93c.08.32-.16.44-.24.68-.16.24-.48.16-.68.08-.36-.24-.52-.68-.28-1,.44-.44.96-.2,1.19.24"/><path class="cls-1" d="M21.49,40.17c.16.36-.08.68-.4.88-.28.16-.52-.08-.76-.12-.2-.28-.56-.6-.2-.92.36-.6,1.07-.28,1.35.16"/><path class="cls-1" d="M67.46,41.87c-.07.8-1.4-.11-1.21.95.19.76.34,1.67.8,2.25.38.53.19,1.37.15,2.02-.34.57-.91.99-1.51,1.29-1.13-.11-2.8.57-3.33-.84-.23-.61-.64-1.22-.64-1.9.11-.07.26-.07.38-.19,0-.27-.3-.42-.27-.68,1.29-.23-.53-1.37.57-1.45.91.95,2.38.65,3.17,1.67.19.15.34.38.57.5-.15-.95-.6-1.9-.76-2.93-.11-.53.08-1.03.45-1.33.68-.53,1.25.23,1.62.64"/><path class="cls-1" d="M24.99,41.62c.12.4-.2.64-.44.84-.36.16-.56-.24-.72-.44-.12-.4.16-.6.4-.8.28,0,.6.12.76.4"/><path class="cls-1" d="M49.52,42.02c.48,1.56.32,3.16-.48,4.49-.04.32.08.84-.36.8-1.07-1.48-.28-3.57.16-5.13.08-.4.56-.56.68-.16"/><path class="cls-1" d="M83.56,42.78c.56,1.12.59,2.6.08,3.73l-.32.32c-.44-.92-.79-1.84-.92-2.84.2-.72.44-1.36.48-2.12.56-.12.52.6.68.92"/><path class="cls-1" d="M28.09,43.22c-.24.48-.92.6-1.35.92-.95.72-2.35.88-3.54.68,1.03-1.44,2.62-2.28,4.53-1.88.08.16.28.08.36.28"/><path class="cls-1" d="M11.75,44.66c1.47,1.04,1.87,2.48,2.74,3.92.12.16.52.2.36.52-.32.24-.64-.24-1.08-.16-1.51-.68-2.47-2.36-2.43-4.13,0-.16.24-.16.4-.16"/><path class="cls-1" d="M82.01,45.9c.04.4-.04.8-.36.92-.44.12-.8-.12-.92-.48-.12-.28.12-.44.2-.64.32-.32.88-.16,1.07.2"/><path class="cls-1" d="M98.79,48.02c0-.76.2-1.48.28-2.2.12-.24.2-.52.16-.84.96-1.28,2.9-.88,4.41-.76.6.32,1.35.28,1.99.44.28-.2.67-.24.99-.2,1.27-.68.44-2.16.52-3.32l-.48-1.2c-.12-.24-.24-.52-.32-.8-.24-.28-.4-.8-.64-1.08-.68-1.76-1.99-2.77-3.1-4.17-2.03-2.64-5.21-4.13-8.39-5.17-3.14-1.08-6.32.32-9.15,1.32-.87-.24-1.31-.92-1.55-1.68-.16-1.52.16-3,.76-4.24.12-1,.79-1.76,1.07-2.68.71-2.24,1.47-4.45,1.63-6.89.08-1.48-1.03-2.52-2.15-3.16-.76-.2-1.63-.16-2.19.44-.52,1.08-1.63,1.81-2.58,2.32-.08.68.75.24,1.03.48.88.16,1.87-.12,2.59.44.08,1.6-.83,2.92-1.67,4.13-1.35,2-2.78,4.04-3.62,6.25l-.16-.16.19,9.79c1.27,2.11,2.85,4.51,5.21,5.31,1.27,1.04,2.86,2.28,4.57,1.36.92-.28.99,1,1.43,1.52.48,1.48-.6,2.52-.68,3.88l-1.04,2.2c-1.19,2.32-2.26,4.81-4.09,6.77-.6,0-.95.64-1.55.68-.32.44-.96.12-1.35.28-1.23.52-2.98.2-3.82,1.36.08.12.2.16.32.2,2.43.04,5.13.2,7.71.08.32-.12.6-.4.64-.76-.36-.68.12-1.28.44-1.8.2-.97.84-1.57,1.12-2.49.83-1.64,1.79-3.24,2.7-4.89l1.23-2c.28-.68.75-1.52,1.23-2.25.32-.32.48-.68.72-1.08.04-.4-.16-.56-.4-.84.28-.28.72-.2,1.08-.28.99.6,2.03,1.56,2.23,2.65l.36,1.04.16.48-.08,1.32.16,1.24c.2,1.92-.16,3.88-.36,5.81-.68,2.32-3.34,2.08-5.25,2.6-.48.32-1.39.16-1.39.96,2.3.48,5.01.2,7.47.16.4-.16.48-.52.68-.88.08-.52.6-.96.44-1.52-.44-.56-.04-1.44-.16-2.2.08-.2.08-.48,0-.76.32-1.16.24-2.56.48-3.68l.16-1.52Z"/><path class="cls-1" d="M118.36,46.46c-1.27,1.8-2.62,3.84-4.85,4.48-.16,0-.32.08-.4-.12,1.35-1.44,2.07-3.69,4.18-4.21.32-.16.76-.32,1.07-.16"/><path class="cls-1" d="M9.8,48.42c-.2.16-.04.52-.4.56-.32.16-.68-.04-.83-.36-.16-.4.2-.8.51-.88.32.16.64.28.72.68"/><path class="cls-1" d="M21.25,48.99c.12.36-.28.36-.48.44-1.67.6-3.38.04-4.57-1.16,0-.16,0-.32.16-.36,1.63.4,3.54.08,4.89,1.08"/><path class="cls-1" d="M11.98,48.46c.08.16.12.44.08.6-.24.36-.6.44-.99.36-.24-.12-.36-.28-.52-.52.04-.4.36-.64.67-.76.32.04.56.12.76.32"/><path class="cls-1" d="M49.24,48.66c.08.36-.24.6-.48.76-.36.08-.68-.08-.83-.32-.12-.28,0-.68.28-.76.36-.08.91-.04,1.03.32"/><path class="cls-1" d="M119.87,48.82c.12.4-.24.6-.52.84-.24.12-.52,0-.76-.12-.04-.2-.28-.36-.2-.64.16-.36.51-.52.91-.48.2.16.36.2.56.4"/><path class="cls-1" d="M122.49,48.66c.24.36.04.64-.16.92-.16.28-.48.36-.72.24-.24-.24-.56-.36-.6-.72,0-.32.36-.56.6-.68.4-.16.56.24.88.24"/><path class="cls-1" d="M8.13,49.83c.04.28-.2.44-.28.68-.2.08-.4.24-.64.16-.28-.12-.48-.36-.6-.64.08-.36.32-.68.71-.8.32.08.68.24.8.6"/><path class="cls-1" d="M91.87,49.83c.08.16.04.36.04.52-.24.32-.56.6-.95.4-.24-.24-.52-.48-.4-.84.32-.44.99-.6,1.31-.08"/><path class="cls-1" d="M14.53,50.43c-.08.28-.2.56-.56.6-.36.04-.48-.28-.68-.44,0-.36-.04-.72.32-.92.48-.16.91.24.91.76"/><path class="cls-1" d="M10.71,50.51c.12.4-.16.68-.4.88-.48.16-.88-.2-1.07-.56.04-.36.32-.8.71-.92.36,0,.56.4.76.6"/><path class="cls-1" d="M94.5,50.43c.08.4-.04.8-.44.96-.48.16-.88-.24-1.07-.56.2-.32.24-.76.71-.84.36,0,.6.16.8.44"/><path class="cls-1" d="M12.58,50.59c.12.28-.12.4-.2.6-.2,0-.32.24-.55.16-.16-.2-.48-.28-.52-.56-.04-.4.24-.6.52-.76.4-.04.64.24.76.56"/><path class="cls-1" d="M117.68,50.91c-.12.32-.36.48-.68.64-.32.08-.52-.2-.75-.32-.2-.16-.12-.52-.04-.72.4-.68,1.47-.36,1.47.4"/><path class="cls-1" d="M120.7,51.07c-.12.44-.56.64-.96.68-.36-.16-.76-.44-.48-.92.16-.16.24-.32.48-.36.48-.16.84.2.96.6"/><path class="cls-1" d="M101.81,51.35c.2.52-.28.68-.6.92-.28-.04-.52-.16-.76-.32-.08-.44.12-.84.56-1.04.36,0,.56.16.79.44"/><path class="cls-1" d="M90.88,51.83c.2.08.12.36.08.48-.24.16-.56.56-.91.32-.28-.16-.48-.4-.4-.76.2-.44,1.04-.48,1.24-.04"/><path class="cls-1" d="M93.1,52.11c.04.32-.04.48-.32.64-.28.28-.6-.04-.87-.12-.08-.16-.16-.4-.04-.6.12-.16.32-.28.52-.32.28.08.6.08.72.4"/><path class="cls-1" d="M25.62,52.15c.24.24-.04.52-.08.76-.2.24-.64.44-.99.2-.4-.16-.36-.68-.28-1,.24-.08.24-.36.55-.36.36.04.56.2.8.4"/><path class="cls-1" d="M106.07,52.31c.08.4-.32.56-.6.64-.48.16-.71-.2-.91-.52,0-.24.24-.4.32-.6.56-.24.91.16,1.19.48"/><path class="cls-1" d="M103.92,52.31c.16.4-.28.6-.44.8-.28.12-.64.08-.88-.16-.2-.12-.2-.36-.2-.6.24-.2.36-.44.64-.52.36,0,.71.2.88.48"/><path class="cls-1" d="M121.86,52.79c.08.56-.64.28-.92.44-1.67,1-3.82.24-5.41-.36.12-.52.72-.32,1.04-.52,1.71-1.08,3.46.24,5.17.32l.12.12Z"/><path class="cls-1" d="M13.02,52.31l-.16.28c-1.47.88-3.38,1.48-5.13.92l-.16-.24c1.47-1.08,3.42-1.36,5.33-1.08l.12.12Z"/><path class="cls-1" d="M110.13,52.59c0,.32-.16.6-.4.76-.4.12-.91,0-1.03-.44-.12-.32.2-.64.52-.76.28,0,.76.04.92.44"/><path class="cls-1" d="M20.13,52.75c-.16.32-.08.64-.48.8-.4.16-.88-.2-.99-.52-.12-.44.2-.56.4-.76.48-.24.84.12,1.07.48"/><path class="cls-1" d="M17.31,52.95c.12.28-.12.44-.2.64-.2.24-.56.2-.79.12-.28-.24-.56-.52-.44-.96.24-.2.36-.32.64-.44.36.08.72.24.8.64"/><path class="cls-1" d="M112.91,53.87c-.04.36-.32.64-.64.72-.32.04-.6-.2-.76-.4-.12-.24-.08-.56.16-.76.08-.12.36-.12.52-.2.36.04.64.32.72.64"/><path class="cls-1" d="M14.37,53.43c.12.32-.16.44-.2.68-.12.68-.56,1.12-.87,1.72-.76.92-1.83.92-2.9,1.2l-.16-.32c1.15-1.48,2.39-2.64,4.02-3.36l.12.08Z"/><path class="cls-1" d="M110.92,54.31c.08.48-.32.56-.6.76-.36,0-.64-.2-.8-.48-.12-.44.28-.6.52-.8.4-.08.76.2.87.52"/><path class="cls-1" d="M18.94,54.31c-.04.08.04.16.12.2-.04.44-.36.56-.6.76-.36,0-.64-.12-.87-.4-.16-.36,0-.8.4-.92.36-.04.83,0,.95.36"/><path class="cls-1" d="M118.24,55.51c.4-.04.48-.52.91-.6.4-.08.76.16.96.44.16.48-.2.72-.52.92-.28.2-.88-.24-.84.28.28.2.52.48.56.8-.08.16-.36.12-.48.04-1.15-.48-2.38-1.28-2.86-2.48-.16-.36-.91-.64-.48-.96,1.16-.08,2.11.84,2.75,1.56"/><path class="cls-1" d="M122.05,54.27c.2.2.12.56-.04.76-.2.4-.8.24-1.15.2-.2-.2-.4-.4-.32-.72.16-.24.32-.4.6-.52.36-.08.63.08.92.28"/><path class="cls-1" d="M107.62,56.43c.36.44.72,1.12.87,1.6-.08.12-.28.08-.36.08-1.35-.76-3.1-1.6-3.62-3.2-.12-.16-.44-.36-.4-.64,1.03-.2,2.03.56,2.74,1.12.28.4.59.6.75,1.04"/><path class="cls-1" d="M16.72,54.91c.16.36-.16.64-.36.8-.44.08-.68-.08-.92-.32-.28-.44.24-.8.56-.96.32-.04.52.28.72.48"/><path class="cls-1" d="M112.59,55.83c.04.24-.28.4-.4.56-.32.04-.64.16-.92-.12-.08-.2-.28-.52-.04-.72.44-.56,1.07-.12,1.35.28"/><path class="cls-1" d="M122.49,56.39c.12.48-.24.8-.56,1-.4.12-.72-.16-.96-.36-.2-.24-.04-.48,0-.76.28-.24.64-.44,1.04-.28.16.12.32.2.48.4"/><path class="cls-1" d="M94.97,61.92c0,.48-.87.36-1.23.72-1.23.64-2.7.64-4.18.6v-.24c1.43-1.2,3.5-1.64,5.41-1.08"/><path class="cls-1" d="M36.96,63.64c-.04.36-.24.56-.6.68-.28,0-.56-.16-.67-.4-.16-.48.24-.68.52-.88.36.04.67.32.76.6"/><path class="cls-1" d="M94.3,64.08c-.08.36-.2.76-.6.92-.36.08-.6-.12-.88-.28-.2-.16-.08-.44-.12-.64.28-.72,1.31-.72,1.59,0"/><path class="cls-1" d="M102.21,64.24c-.99.64-2.11,1.41-3.42,1.41l-2.15-.04-.2-.16c1.31-1.6,3.7-1.6,5.77-1.44v.24Z"/><path class="cls-1" d="M26.06,65.21c0,.36-.16.64-.52.76-.4.08-.68-.08-.83-.36-.16-.36,0-.72.32-.92.44-.28.88.2,1.03.52"/><path class="cls-1" d="M28.05,65.61c.12.2-.08.32-.16.52-.24.12-.56.2-.76,0-.28-.16-.36-.44-.24-.68.12-.24.36-.2.48-.36.28.12.56.24.67.52"/><path class="cls-1" d="M12.82,69.65c-.4.48-1.03-.12-1.47-.36-1.39-.8-1.35-2.36-2.74-3.28.16-.48.52.04.8-.04.24.16.56.32.84.44,1.35.76,1.67,2.04,2.58,3.24"/><path class="cls-1" d="M128.73,54.11c-.64-1.16-1.71-1.64-2.98-1.64-1.03.08-1.79.76-2.23,1.64-.24.88.08,1.68.76,2.2.28.12.64.08.8-.2.2-.52-.36-.52-.44-.92-.16-.56.04-1.04.44-1.4.4-.4,1.07-.2,1.55-.2.48.32.96.6,1.19,1.16.24.68.24,1.44,0,2.12-.44,1-1.43,1.8-2.47,2-3.3.48-39.53.32-39.53.32-4.25.4-9.11-.8-12.76,1.44-1.67.8-2.51,2.64-2.94,4.29-1.08.96-2.23,2.08-3.1,3.17l-.12-.12c.2-.96.64-1.81.84-2.76.6-.8.6-1.88,1.03-2.76,1.51-2.44,2.94-4.93,5.29-6.65.99-1.32,2.74-1.08,4.26-1.08,1.63.76,3.54,1,5.53.8.08-.08.12-.16.12-.28-.55-.52-1.47-.72-2.11-1.24-1.59-.76-3.1.24-4.77.12-.08-.08-.16-.12-.12-.24,1.51-1.12,3.22-1.92,4.93-2.64,1.39-.76,2.86-1.16,4.33-1.72.6,0,1.15-.52,1.71-.16l2.11-.56c.08.04.16.16.32.12,1.79-.6,4.06-.04,6.08-.08l.28.24,1.91.48c.71.08,1.03.92,1.79.96.4-.56-.44-.8-.64-1.16.88-.2,1.87.04,2.66.4l-.4.44c-.24.44.12.76.48.92.28.08.48-.12.68-.2.52-.36-.04-.72.12-1.04,2.94.52,5.77,1.24,8.47,2.4.75.24,1.47.8,2.31.76-.84-.76-1.99-1.16-3.02-1.6-.68-.4-1.63-.44-2.15-1,.12-.2.4-.12.52-.28,1.35-.16,2.51-1.16,3.46-2.24.08-.24.52-.16.48-.48-.36-.4-.96.12-1.43.08-1.67.32-2.39,2.28-4.06,2.64-2.03-.48-4.1-.96-6.12-1.48-.99-.16-2.07-.24-2.98-.64l-2.23-.2h-4.06c-.04-.08-.16-.12-.12-.24,1.43-.36,2.66-1.2,4.1-1.56l10.66-4.89c1.12-1,2.11-2.12,3.02-3.28.04-.32-.16-.64-.44-.76-.28-.12-.6-.08-.79.16-.48.36,0,.8,0,1.24-.48.64-1.23,1.2-1.83,1.56-.16-.04-10.98,4.93-10.98,4.93-1.59.68-3.18,1.44-4.85,1.8l-2.31.36c-.16.48-.56.76-1,.92-.63.12-1.15.52-1.83.52-5.17,2-10.54,4.13-14.63,8.21.24-.48.36-1.08.4-1.68-.08-.6-.04-1.28-.44-1.76-.09-.22-.39-.87-.29-1.1l-.58.38c-.36.88-.68,2.48-.32,3.41.12.72.71,1.56.16,2.2-1.91,2.32-2.98,5.13-4.26,7.77-.48-.08-.72-.52-.92-.96,1.35-1.72,2.43-3.64,2.82-5.85.28-.2.08-.72.36-.96-.08-.64.36-1.28.04-1.8.25-.87-1.16-1.68-.26-2.24l-.75.36c-1.71,2.24.89,5.61-1.06,7.77v.16c-.56.72-.83,1.44-1.59,1.92-.95-.4-1.31-1.48-1.87-2.28-.87-.84-.87-2.56-.36-3.72.36-1.16-.24-2.17-.36-3.21l-.4-.24c-.95,1.24-1.31,3.2-.56,4.69.4.72.44,1.72,1.03,2.32.36,1.16,1.07,1.92,1.71,2.96.16.4-.24.48-.44.68-.44-.28-.36-.92-.76-1.2-1.31-2.8-3.02-5.04-5.09-7.33-.08-.36-.44-.68-.24-1.08.76-.72.92-2.12.52-3.04-.08-.2-.32-.44-.28-.64l-.6-.48c.08,1.4-.84,2.64-.44,4.12v.08c-4.1-3.08-8.62-5.84-13.24-8l-.37,1.02c1.17.29,4.26,2.18,4.26,2.18,1.39.52,2.66,1.36,3.98,2.12,5.41,3,8.99,7.97,11.41,13.49.04.44.44.92.16,1.36-.83-1.28-2.03-2-3.02-3.04-.28-1.88-1.39-3.68-3.02-4.44-.6-.88-1.87-.96-2.86-1.24l-14.47-.08c-11.77-.16-22.51.36-34.2.16-1.63-.16-3.62-.72-4.1-2.44-.32-.6-.32-1.64,0-2.2.44-.76,1.23-1,2.03-1.08.64.08,1.07.68,1.35,1.12,0,.52-.44,1-.64,1.44.04.16.2.48.48.36.52-.2.92-.76,1.04-1.28.04-.28.16-.68-.12-.88-.24-.84-1.11-1.44-1.87-1.64-.99-.08-2.03.2-2.71.92-.95.8-.91,2.24-.64,3.36.64,1.76,2.51,2.97,4.3,3.2l38.69.16c3.78.2,8.03-.44,11.85.32,1.39.44,2.86,1.48,3.22,3.04-.04.08-.16.04-.28.04-3.14-2.04-7.28-2.8-11.29-2.32-1.59-.08-3.02.52-4.45.92-.76.16-1.47-.2-1.95-.64-1.43-1.28-3.94-1.2-5.77-.72,0,.12-.04.24.04.28,1.95-.16,3.1,1.52,4.85,1.72.4.08.72-.36,1.07-.04-1.83.88-3.58,1.92-5.53,2.48-.6-.12-.92-.68-1.39-1-.76-.84-2.15-.48-3.18-.56-.36.08-.68-.16-.92,0,.32.64,1.03,1,1.71,1.32.99.44,2.14-.04,3.06.56-.24.28-.56.36-.83.56-1.87.72-3.42,2.4-5.49,2.28-2.18.24-4.41-.4-5.89-1.92-.64-1.56-2.27-2.4-4.02-2.32-.12.08-.28.08-.24.28.88.52,1.55,1.56,2.43,2.16.56.68,1.63,0,2.15.76.76.52,1.71.96,2.58,1.12.64.28,1.35.4,2.07.56l-.28.16c-3.62,1.2-7.79,1.32-11.85,1.16-1.19-.04-2.35-.4-3.54-.36.2.24.6.44.96.56-.32.2-.68.28-1.07.32-.48.12-1.03.16-1.51.4-.63-.04-1.19.2-1.71.4-.68.72-1.47,1.48-2.26,1.84,0,.16-.04.4.16.4.76-.32,1.71-.08,2.46-.4,1.31-.12,2.07-1.56,3.1-2.16,1.11-.88,2.7-.68,4.06-.48.8.2-.08.52.16,1.04.32.28.59.6,1.04.48.08-.08.16-.16.28-.2.24-.32.2-.68.04-1,.56-.36,1.31.04,1.91-.2,1.51-.04,3.02-.36,4.49-.4.24-.04.52-.28.75-.04-.12.32-.52.36-.36.8.08.36.48.52.79.6.4-.16.76-.44.6-.96-.08-.28-.4-.32-.6-.44.84-.4,1.79-.52,2.62-.92.6-.12,1.15-.32,1.67-.56.52-.04.95-.52,1.43-.32-.2.68-.48,1.32-.84,1.92-.63,2.12-1.11,4.93,0,6.97.12.04.16-.04.24-.08-.83-2.12-.36-4.57.36-6.57.56-3.4,4.06-4.41,6.56-5.69l.12.16c-.68,1.76-1.67,3.44-1.51,5.57.08.36-.16.72,0,.96.68-.36,1.11-1.16,1.47-1.84.28-1.8-.76-4.05,1.07-5.37,3.26-1.28,6.32-2.96,10.1-3,.12.12.4-.08.44.16-.8.88-1.95,1.72-2.31,2.81-1.27,1.76-1.23,4.76-.68,6.93.36,1.24-.71,1.92-1.23,2.89-.25.34-.32.92-.55,1.31l.78.09c.68-.72,1.31-1.6,1.35-2.65.08.4.44.72.75.8.28-.44-.24-.76-.28-1.2.64-.36.92.44,1.43.6.84.2,1.55.56,2.43.56l.28-.28c-.88-1.36-2.62-1.6-4.14-1.68-.79-1.32-.79-2.96-.72-4.56.16-.84.32-1.72.8-2.48.2-.56.75-1.08,1.11-1.52.72-.68,1.63-1.16,2.51-1.36h.12c0,.08.04.12.04.12-1.07.84-1.19,2-1.83,3.04-.68,1-1,2.36-.36,3.48.24.52.12,1.32.68,1.68.51-.72.56-1.64.83-2.44-.12-1.32-.91-2.57-.16-3.85.4-1,1.23-1.4,2.15-1.76,2.19-.2,4.1.92,6,1.76.4.28,1.08.52,1.15,1.08-.04,1.08-.64,2.16-1.47,2.68-1.07.64-2.62.72-3.62-.04-.6-.6-.83-1.64-.63-2.45.44-.48,1.04-.88,1.75-.64.4.2.76.6,1.27.36.2-.12.28-.44.16-.64-.44-.24-.6-.84-1.19-.92-.75-.12-1.67-.08-2.18.44-.84.72-1.15,1.8-.92,2.8.28,1.28,1.23,2.2,2.46,2.56,1.83.44,3.74-.12,4.89-1.68.48-.52.6-1.08.87-1.72,1.91,1.16,3.34,3.21,4.1,5.29,0,.68.2,1.4.04,2l1.39.12c-.12-.32,0-.68.12-.96.52-2.64,2.15-4.85,4.1-6.57.68-.4.52.52.68.8.6,1.52,1.99,2.6,3.46,3.04,1.67.28,3.26-.12,4.29-1.4.52-.96,1.15-2.37.28-3.37-.56-.68-1.31-1.04-2.19-1.04-1.03,0-1.67.72-2.19,1.48,0,.32-.04.68.24.84.16,0,.48.04.6-.2.08-.6.6-.88,1.07-1.2.44-.24.91,0,1.27.24.44.36.52.96.56,1.56-.08.76-.6,1.56-1.31,1.88-1.15.6-2.82.32-3.82-.36-.48-.52-.76-1.12-1.11-1.76-.08-.64-.32-1.2,0-1.84,1.75-1.04,3.58-1.8,5.69-2,.84.16,1.55.72,2.11,1.32,1.83,1.88-.4,4.57.88,6.65.48-.08.48-.72.67-1.12.6-1.44-.16-3-.52-4.4-.48-.88-.76-1.64-1.51-2.36.2-.08.28-.08.48-.08.84.56,1.75,1.2,2.43,2.08,1.15,1.88,1.75,4.12,1.55,6.57-.32,1.2-1.59,1.76-2.58,2.2-.4.32-.87.8-1.07,1.28.48.28,1.15,0,1.63-.2.76-.28,1.19-1.24,1.71-1.68.08.04.04.16.08.24.04.44-.2,1.04.2,1.16.2-.56.24-1.36.36-2.04.52.56.6,1.28.76,2,.36.72.95,1.68,1.91,1.8.24-.36-.04-.72-.12-1.04-.12-1-.96-1.52-1.51-2.24-1.39-1.92-.76-4.93-1.83-7.09-.4-1.16-1.23-2-2.15-2.96l.16-.16c1.95-.04,3.58.6,5.37.96,2.19,1.08,5.37.84,6.4,3.69.44,1.6,1.15,3.08,2.27,4.33l.12-.08c.24-.4.24-1.08,0-1.48-.24-2-1.99-2.48-2.9-4.16l.12-.16c.95.28,1.95.52,2.9.92,3.18.88,5.41,4,5.81,7.25,0,2.57-.48,4.68-1.47,6.85-.12.32-.68.68-.32.96.44-.32.52-.84.76-1.2,1.31-2.2,1.99-5.24,1.31-8.05-.04-.52-.64-.92-.36-1.44.2.24.44.28.68.36.24-.16.6-.16.76-.44.04-.24.2-.52,0-.72-.24-.36-.76-.36-1.15-.28-.2.24-.44.56-.48.88-.4-.68-.8-1.56-1.43-2.12l.08-.12c1.79.6,3.42,1.48,5.25,1.96.4.24.83.44,1.39.44,1.55.6,3.26.84,4.89,1.24,1.19-.12,2.19.44,3.38.16v-.08l-.04.04c-.44-.56-1.39-.04-1.91-.44-2.75-.28-5.37-1-7.83-1.96.04-.12.2-.08.32-.08.4-.2.68-.56.64-1-.2-.28-.52-.44-.92-.44-.24.12-.55.4-.6.68.04.32.32.68.6.76-.08.08-.24.04-.36.04-1.23-.56-2.43-1.08-3.62-1.64-.44-.08-.8-.44-1.23-.52-.91-.44-1.83-.88-2.74-1.24-2.54-1.32-5.37-2.04-8.07-3-.6-.16-1.15-.32-1.71-.48-.99-.28-1.99-.52-2.98-.8-3.38-.84-7.91-.92-10.86.92-.48-.16-.76.6-.99.12.84-2.2,3.26-2.92,5.45-3,15.95-.16,30.9-.28,46.61-.52,1.83,0,3.62-.64,4.57-2.28.68-.96.8-2.61.28-3.68M65.51,68.89c-.16.48-.48.88-.44,1.4l-.16.08c.12-.6-.48-.96-.32-1.6-.32-.48-.32-1.08-.6-1.6-.36-.64.32-.92.6-1.36.56.24.76.76,1.15,1.24.24.68-.28,1.2-.24,1.84"/><path class="cls-1" d="M108.65,66.37c0,.12.24.16.16.36-1.39,1.24-3.34,1.6-5.33,1.68-.16.04-.32.16-.52.12-.12-.08-.16-.2-.08-.28,1.43-1.56,3.61-2.36,5.76-1.88"/><path class="cls-1" d="M102.25,67.01c.16.56-.2.88-.64,1.08-.44-.04-.67-.32-.87-.64-.12-.32.16-.48.28-.68.32-.32,1.07-.32,1.23.24"/><path class="cls-1" d="M26.66,67.09c.08.28.04.64-.2.84-.16.2-.52.24-.72.2-.28-.04-.44-.36-.52-.6,0-.36.2-.56.52-.76.32,0,.68-.04.92.32"/><path class="cls-1" d="M19.54,69.69v.28c-.96.2-1.87-.04-2.59-.6-.56-.8-1.19-1.6-2.11-2,0-.12-.24-.28,0-.36,1.99,0,3.18,1.6,4.69,2.68"/><path class="cls-1" d="M114.7,67.05c-.92,1.36-1.71,3.04-3.34,3.65-.28,0-.52.4-.76.12.64-1.52,1.99-3.16,3.54-3.81.16,0,.4-.04.56.04"/><path class="cls-1" d="M28.96,67.53c.04.44-.28.52-.56.76-.32.04-.48-.2-.68-.44-.16-.4.2-.56.4-.76.32-.08.68.16.84.44"/><path class="cls-1" d="M119.71,67.77c-.36.52-.2,1.28-.56,1.84-.8.92-1.47,1.96-2.74,2.16-.2-.4.28-.8.48-1.16.55-1.2,1.35-2.56,2.62-3.08l.2.24Z"/><path class="cls-1" d="M7.21,68.13c.12.28.24.56,0,.88-.24.2-.6.28-.91.16-.36-.2-.48-.64-.32-.96.24-.36.95-.56,1.23-.08"/><path class="cls-1" d="M4.95,68.61c.04.2.16.36.12.56-.12.2-.32.44-.55.48-.44.08-.72-.16-.92-.52-.04-.36.08-.68.4-.84.36-.16.76.04.96.32"/><path class="cls-1" d="M9.64,68.85c.08.32.16.88-.32.96-.56.24-.88-.16-1.19-.48,0-.36.2-.64.48-.8.4-.04.76,0,1.03.32"/><path class="cls-1" d="M16.16,69.37c-.04.28.04.68-.28.76-.2.2-.56.12-.76.08-.08-.24-.52-.44-.28-.72.16-.2.32-.32.55-.44.24.12.6,0,.76.32"/><path class="cls-1" d="M123.52,69.65c-.12.28-.28.64-.6.64-.36-.04-.72-.08-.91-.44-.16-.44.2-.68.52-.8.4,0,.91.16.99.6"/><path class="cls-1" d="M116.25,69.85c.04.32-.32.56-.48.68-.56.24-1.03-.16-1.23-.6.08-.36.36-.6.68-.72.52-.04.79.24,1.03.64"/><path class="cls-1" d="M121.18,69.77c0,.28-.16.56-.36.68-.32.12-.72.08-.96-.16-.36-.32-.08-.6.16-.84.36-.2,1.03-.16,1.15.32"/><path class="cls-1" d="M6.18,70.45c.08.44-.08.84-.48,1-.36,0-.76-.2-.87-.56-.04-.36.08-.72.4-.84.4-.12.72.12.96.4"/><path class="cls-1" d="M114.26,70.89c.12.44-.12.84-.56,1.04-.32.08-.52-.08-.75-.28-.16-.2-.36-.64-.04-.84.32-.6,1.11-.36,1.35.08"/><path class="cls-1" d="M27.57,71.33c.16.44-.32.52-.44.76-.16.08-.48.12-.6-.04-.2-.24-.44-.48-.32-.84.2-.16.28-.32.52-.4.44-.12.6.28.84.52"/><path class="cls-1" d="M122.81,71.61c.08.28-.16.4-.2.6-.24.2-.64.24-.91.16-.36-.2-.36-.52-.36-.88.24-.16.28-.36.56-.44.36,0,.79.16.91.56"/><path class="cls-1" d="M120.34,71.73c.16.48-.28.72-.6.84-.16.04-.4-.08-.44.16,1.04.52,1.67,1.36,2.46,2.12v.32c-1.43-.04-2.9-.4-3.94-1.52-.28-.2-.76-.2-1.07-.48.52-.52,1.47-.32,2.19-.36.52-.56-.6-.96.08-1.44.24-.04.4-.28.71-.2.28.12.44.32.6.56"/><path class="cls-1" d="M104.08,71.77c.08.2-.16.44-.2.64-.24.24-.6.28-.88.16-.2-.28-.52-.52-.4-.92.32-.6,1.35-.48,1.47.12"/><path class="cls-1" d="M15.16,73.18c-.12.36-.28.6-.68.64-.32-.04-.6-.16-.72-.48-.04-.28.16-.44.2-.64.44-.36,1.23-.12,1.19.48"/><path class="cls-1" d="M18.39,72.66c0,.56-.6.88-.8,1.44-.6,1.32-1.67,2.52-3.18,2.64-.16-.36.52-.8.68-1.16.64-1.36,1.91-2.08,3.06-2.92h.24Z"/><path class="cls-1" d="M103.13,73.21c.04.44-.36.76-.68.92-.36.12-.64-.16-.84-.32-.32-.32-.12-.64.04-.96.48-.48,1.15-.08,1.47.36"/><path class="cls-1" d="M105.59,73.5c-.04.44-.32.76-.72.88-.08-.12-.28-.04-.4-.08-.28-.16-.52-.4-.52-.72.2-.2.28-.52.56-.56.36-.04.95,0,1.07.48"/><path class="cls-1" d="M24.55,73.46c.04.44-.28.68-.6.84-.36.04-.6-.2-.76-.48-.08-.36.28-.6.48-.8.48-.16.6.2.88.44"/><path class="cls-1" d="M27.29,73.62c-.12.36-.36.6-.76.68-.28-.08-.6-.16-.72-.48-.04-.4.28-.6.56-.8.4,0,.83.16.92.6"/><path class="cls-1" d="M114.14,76.42c.2.16.56.35.48.64-.64.28-1.15-.44-1.75-.56-.96-.96-1.67-2.01-2.07-3.21.36-.36.76.08,1.07.2.92.76,1.79,1.76,2.27,2.93"/><path class="cls-1" d="M115.61,73.62c.12.28.08.6-.08.88-.24.4-.76.32-1.11.24-.2-.24-.56-.56-.32-.92.12-.32.48-.4.76-.52.28-.04.48.2.76.32"/><path class="cls-1" d="M30.95,74.66c.04.32.12.8-.28,1-.36.08-.83-.04-.95-.48-.2-.48.24-.56.48-.8.32-.08.52.08.75.28"/><path class="cls-1" d="M105.47,77.26c.56.8.95,1.8,1.03,2.85-.12.28.2.56-.04.76h-.16c-1.79-1.28-2.19-3.08-2.86-4.89-.16-.08-.2-.24-.16-.4.4-.36.68.36,1.08.48l1.11,1.2Z"/><path class="cls-1" d="M36.12,75.9s0,.08.04.08c-1.59,1.12-3.82,1.8-5.65.72-.04-.12.04-.32.2-.36,1.15-.36,2.27-.92,3.5-.76l1.91.32Z"/><path class="cls-1" d="M27.05,76.1c-1.35.84-2.58,2.48-4.25,2.88-.32.12-.52.56-.91.32.72-2.16,3.06-3.32,5.17-3.52v.32Z"/><path class="cls-1" d="M103.13,77.9c.12.32,0,.76-.32.84-.2.2-.6.2-.76,0-.36-.16-.36-.52-.36-.8.12-.28.4-.32.6-.44.36.08.64.08.84.4"/><path class="cls-1" d="M99.83,78.1c-.24.56-.92.88-1.43,1.04-1.35.48-2.58-.16-3.78-.48.04-.32.44-.2.64-.4,1.31-.28,2.66-.56,4.06-.2.12-.08.4-.12.52.04"/><path class="cls-1" d="M27.05,79.26c-.12.16-.16.52-.48.64-.28.12-.55,0-.79-.16-.08-.24-.36-.45-.16-.72.08-.28.4-.36.64-.44.4.04.71.28.79.68"/><path class="cls-1" d="M29.4,79.62c-.12.24-.24.6-.56.76-.32.08-.56-.08-.8-.28-.12-.24-.24-.52-.12-.8.08-.2.36-.24.56-.36.4-.04.75.36.91.68"/><path class="cls-1" d="M102.37,80.02c.04.32-.12.52-.28.76-.2.28-.6.32-.87.16-.28-.04-.36-.36-.48-.56-.24-.32.16-.52.28-.8.43-.36,1.15-.16,1.35.44"/><path class="cls-1" d="M104.12,79.95c.04.2.16.4.08.56-.24.2-.4.72-.88.52-.24.08-.36-.24-.48-.32-.16-.4-.04-1,.48-1.08.36-.12.6.2.8.32"/><path class="cls-1" d="M27.97,81.11c.08.44-.08.84-.4,1.08-.44.08-.99.08-1.15-.44-.04-.4,0-.92.48-1.16.4-.04.87.04,1.08.52"/><path class="cls-1" d="M30.24,80.95c-.08,1.12-.32,2.48-1.43,3.12-.64.12-1.27.72-1.91.32v-.2c.83-1.2,2.35-2.12,3.34-3.25"/><path class="cls-1" d="M96.13,81.87c.16.24-.12.44-.24.64-.24.28-.68.16-.95.04-.28-.12-.32-.52-.2-.8.08-.24.32-.36.52-.44.36-.04.68.28.88.56"/><path class="cls-1" d="M34.21,83.71c.56.92.24,2.16.56,3.16-.68.08-.95-.68-1.39-1.08-.87-1.2-.76-2.8-1.15-4.21.08-.12.2-.12.28-.08.6.4,1.03,1.16,1.51,1.68-.08.28.24.28.2.52"/><path class="cls-1" d="M98.11,82.19c0,.32-.36.4-.56.6-.28-.04-.52-.16-.75-.36-.12-.4.2-.52.4-.72.4-.16.8.04.92.48"/><path class="cls-1" d="M102.85,85.75c0,.12-.04.36-.24.28h-.16c-1.15-1.04-2.31-2.2-2.15-3.8l.24-.04c1.07.92,2.27,1.92,2.31,3.57"/><path class="cls-1" d="M99.87,84.47c.04.32-.16.56-.36.76-.44.12-1.11.08-1.19-.52-.04-.4.4-.6.6-.8.48-.12.79.2.95.56"/><path class="cls-1" d="M97.24,85.31c-.56,1.48-2.07,2.25-3.1,3.37-.2-.12-.12-.44-.08-.6.4-1.52,1.59-3,3.06-3.6.64.08,0,.52.12.84"/><path class="cls-1" d="M100.22,86.51c0,.36-.36.52-.56.72-.32-.04-.64-.12-.87-.44-.04-.4.28-.52.52-.72.4-.08.76.12.92.44"/><path class="cls-1" d="M70.63,13.8c.54,0,.98.45.98.99s-.44.99-.98.99h-11.79c-.54,0-.98-.44-.98-.99s.44-.99.98-.99h11.79ZM62.3,15.51c1.15,0,.06-1.4-.56-1.4h-1.15c-1.15,0-.06,1.4.56,1.4h1.15ZM67.13,15.51c1.15,0,.06-1.4-.56-1.4h-1.15c-1.15,0-.06,1.4.56,1.4h1.15ZM70.69,14.12h-.44c-1.15,0-.17,1.4.44,1.4.77,0,.82-1.4,0-1.4"/><path class="cls-1" d="M69.6,27.33l2.25.86,2.22-.86-.88,3.32,1.76-.36-.6,2.01.6,1.93-1.56-.42.68,3.58-2.22-.86-2.25.86.92-3.58-1.8.5.48-2.01-.48-1.93,1.72.28-.84-3.32ZM72.92,33.31c.51,0,.55-.7.55-1.3,0-1.37-1.08,0-1.63-1.29-.4,1.08-1.52.08-1.52,1.24,0,.8,0,1.34.79,1.34h1.81ZM70.72,32.08c0,.52.7.17,1.22.17s1.22.35,1.22-.17c0-.74-.7-.48-1.22-.48s-1.22-.26-1.22.48"/><polygon class="cls-1" points="64.33 32.21 64.33 31.79 63.95 31.71 64.24 31.41 64.06 31.07 64.45 31.11 64.68 30.7 64.91 31.11 65.3 31.07 65.12 31.41 65.41 31.71 65.04 31.79 65.04 32.21 64.68 31.94 64.33 32.21"/><polygon class="cls-1" points="62.58 34.46 62.58 34.04 62.2 33.97 62.5 33.66 62.31 33.32 62.7 33.36 62.94 32.95 63.16 33.36 63.56 33.32 63.37 33.66 63.67 33.97 63.29 34.04 63.29 34.46 62.94 34.19 62.58 34.46"/><polygon class="cls-1" points="65.54 34.17 65.54 33.75 65.17 33.68 65.46 33.37 65.28 33.03 65.67 33.08 65.9 32.67 66.13 33.07 66.52 33.03 66.34 33.37 66.63 33.68 66.26 33.75 66.26 34.17 65.9 33.91 65.54 34.17"/><polygon class="cls-1" points="65.9 35.86 65.9 35.62 65.68 35.58 65.85 35.4 65.74 35.21 65.96 35.24 66.1 35 66.22 35.23 66.45 35.21 66.34 35.4 66.51 35.58 66.3 35.62 66.3 35.86 66.1 35.7 65.9 35.86"/><polygon class="cls-1" points="63.14 37.78 63.14 37.06 62.49 36.94 63 36.41 62.69 35.83 63.35 35.9 63.75 35.19 64.14 35.89 64.81 35.83 64.5 36.41 65.01 36.94 64.36 37.06 64.36 37.78 63.75 37.32 63.14 37.78"/><polygon class="cls-1" points="64.54 0 65.94 3.45 69.49 2.4 67.69 5.65 70.71 7.79 67.07 8.4 67.29 12.12 64.54 9.62 61.79 12.12 62.02 8.4 58.37 7.79 61.39 5.65 59.59 2.4 63.14 3.45 64.54 0"/><path class="cls-1" d="M51.71,77.24c-.42.16-.59.27-.48.71l.5,2.11c.09.39.12,1.01-.14,1.38-.31.45-.97.74-1.44.86-.35.09-1.1.22-1.7-.03-.4-.17-.66-.35-.83-1.07l-.52-2.21c-.13-.55-.34-.52-.79-.45l-.04-.17,2.67-.64.04.16c-.52.14-.76.21-.62.79l.52,2.21c.09.38.31,1.29,1.44,1.02,1.39-.33,1.16-1.35,1.06-1.77l-.48-2.02c-.1-.4-.24-.61-.93-.47l-.04-.17,1.74-.42.04.16Z"/><path class="cls-1" d="M55.66,77.68c-.24-.43-.89-1.09-1.82-.88-.41.09-.8.39-.71.82.08.36.26.47.99.6l1.27.23c.29.05.98.3,1.14,1.03.13.58-.2,1.5-1.66,1.82-.75.17-1.16.02-1.4.08-.17.04-.18.17-.19.28l-.23.05-.36-1.64.23-.05c.31.64.93,1.29,1.94,1.06.95-.21.84-.88.83-.96-.1-.44-.51-.52-1.07-.61l-.58-.1c-1.47-.24-1.6-.81-1.67-1.12-.09-.41-.04-1.36,1.46-1.7.63-.14,1.05,0,1.28-.05.18-.04.2-.15.21-.28l.24-.05.32,1.44-.22.05Z"/><path class="cls-1" d="M60.91,80.3l-2.88.28-.02-.17c.59-.1.78-.13.73-.7l-.34-3.57c-.56.08-1.39.19-1.45,1.29l-.23.02-.1-1.37,4.85-.47.14,1.36-.23.02c-.27-1.07-1.1-1.02-1.66-1l.34,3.57c.06.58.25.57.85.55l.02.17Z"/><path class="cls-1" d="M67.65,80.3l-1.66-.03-1.63-2.16h-.22s-.03,1.33-.03,1.33c-.01.55.17.57.7.64v.17s-2.74-.05-2.74-.05v-.17c.56-.05.72-.06.73-.61l.06-3.01c.01-.59-.24-.6-.7-.64v-.17s2.61.05,2.61.05c.57,0,2.28.1,2.26,1.24-.02.84-.85,1.03-1.29,1.14l1.59,1.97c.11.12.23.13.33.14v.17ZM64.14,77.88c1.06.01,1.49-.13,1.5-1.01.01-.69-.31-.99-.96-1-.45,0-.46.07-.51.27l-.03,1.74Z"/><path class="cls-1" d="M72.98,80.99l-2.61-.33.02-.17c.5.02.65.04.68-.18.02-.18-.17-.72-.26-.94l-1.81-.23c-.29.46-.45.72-.46.83-.03.26.35.33.62.38l-.02.17-1.63-.2.02-.17c.44,0,.58-.22.88-.69l2.25-3.48.23.03,1.35,3.78c.27.77.37,1.01.76,1.05l-.02.17ZM70.72,79.08l-.61-1.74-.96,1.54,1.57.2Z"/><path class="cls-1" d="M77.7,81.95l-4.61-.85.03-.16c.46.03.7.06.77-.35l.59-3.24c.08-.44-.24-.52-.6-.6l.03-.17,2.78.51-.03.17c-.56-.08-.81-.12-.92.47l-.57,3.16c-.06.32.11.41.64.51,1.2.22,1.75-.25,2.26-.94l.23.04-.6,1.46Z"/><path class="cls-1" d="M80.76,82.63l-2.78-.58.04-.17c.43.06.75.1.84-.32l.67-3.23c.09-.44-.28-.53-.64-.63l.04-.16,2.78.58-.03.17c-.38-.06-.76-.14-.85.31l-.67,3.22c-.09.42.22.51.66.63l-.03.17Z"/><path class="cls-1" d="M86.4,83.35l-2.61-.27.02-.17c.5.02.65.03.67-.2.02-.18-.19-.71-.28-.94l-1.82-.19c-.28.47-.43.73-.45.84-.03.26.36.32.63.36l-.02.17-1.64-.17.02-.17c.44-.01.58-.23.87-.71l2.17-3.52.23.02,1.44,3.75c.29.76.39,1.01.78,1.03l-.02.17ZM84.1,81.5l-.65-1.73-.93,1.57,1.57.16Z"/><path class="cls-1" d="M65.66,28.43c0-1.64-.92-.1-1.43-1.49-.37,1.18-1.47.19-1.47,1.45,0,.48.13.76.36.92v.48c0,.12.1.23.23.23h1.73c.13,0,.23-.1.23-.23v-.52c.21-.18.35-.46.35-.83M64.24,28.74c-.48,0-1.12.33-1.12-.24,0-.8.54-.62,1.02-.62s1.22-.18,1.22.62c0,.57-.64.24-1.12.24"/><path class="cls-1" d="M79.89,48.5c.42,0,.75-.3.75-.66s-.33-.66-.75-.66-.75.3-.75.66.33.66.75.66"/><path class="cls-1" d="M76.36,24.28s-.35.59-.35.7c0,.22.16.39.36.39s.36-.18.36-.39c0,0-.36-.7-.36-.7"/><path class="cls-1" d="M52.35,24.28s-.35.59-.35.7c0,.22.16.39.36.39s.36-.18.36-.39c0,0-.36-.7-.36-.7"/><path class="cls-1" d="M58.35,24.28s-.35.59-.35.7c0,.22.16.39.36.39s.36-.18.36-.39c0,0-.36-.7-.36-.7"/><path class="cls-1" d="M64.36,24.28s-.35.59-.35.7c0,.22.16.39.36.39s.36-.18.36-.39c0,0-.36-.7-.36-.7"/><path class="cls-1" d="M70.36,24.28s-.35.59-.35.7c0,.22.16.39.36.39s.36-.18.36-.39c0,0-.36-.7-.36-.7"/><path class="cls-1" d="M52.36,32.52s.35.59.35.71c0,.22-.16.39-.36.39s-.36-.17-.36-.39c0-.01.36-.71.36-.71"/><path class="cls-1" d="M52.36,40.53s.35.59.35.7c0,.22-.16.39-.36.39s-.36-.17-.36-.39c0-.01.36-.7.36-.7"/><path class="cls-1" d="M53.32,46.87s.35.59.35.71c0,.21-.16.39-.36.39s-.36-.18-.36-.39c0-.01.36-.71.36-.71"/><path class="cls-1" d="M58.35,50.24s.35.6.35.7c0,.22-.16.39-.36.39s-.36-.17-.36-.39c0-.01.36-.7.36-.7"/><path class="cls-1" d="M76.67,32.52s-.35.59-.35.71c0,.22.16.39.36.39s.36-.17.36-.39c0-.01-.36-.71-.36-.71"/><path class="cls-1" d="M76.67,40.53s-.35.59-.35.7c0,.22.16.39.36.39s.36-.17.36-.39c0-.01-.36-.7-.36-.7"/><path class="cls-1" d="M75.71,46.87s-.35.59-.35.71c0,.21.16.39.36.39s.36-.18.36-.39c0-.01-.36-.71-.36-.71"/><path class="cls-1" d="M70.67,50.24s-.35.6-.35.7c0,.22.16.39.36.39s.36-.17.36-.39c0-.01-.36-.7-.36-.7"/><path class="cls-1" d="M64.54,53.81s-.35.59-.35.7c0,.22.16.39.35.39s.36-.18.36-.39c0-.01-.36-.7-.36-.7"/><path class="cls-1" d="M74.31,41.86c.08.12.26.15.5.07l.23-.65s-.26-.3-.43-.26c-.64.15-1.32.23-1.7.84,0,.42.3.8.6.99.23-.07.26.15.42.27.04.19-.08.34-.26.34-.45-.46-1.24.15-1.59-.42.15-.57.45-1.22-.04-1.75.04-.11.23-.23.11-.34-.19-.53-.76-.11-1.1-.11-.57-.08-1.02.23-1.36.68.04.19.11.38.3.57.15-.04.23,0,.26.15l-.38.23c.11.12.11.27.15.42-.27.11-.53-.27-.64-.46,0-.3.04-.84-.38-.91-.07,0-.33.11-.33.11-.09.11-.15.35-.15.63s.15.68.15.68c0,0,1.17.86,1.43,1.4-.34.68-.34,1.64-1.13,2.01-.23.15-.23.38-.23.61l.19.15c.49-.27,1.43-.34,1.36-1.18.19-.34.38-.72.72-.99.38-.08.72.11.87.42-.11.57-.49.95-1.02,1.14-.07.08-.04.19-.04.3.15.27.57.15.79.11.64-.42.91-1.18,1.47-1.41.08.38-.76.49-.23.87.34-.07.79.04,1.02-.42-.27-.65.91-.95.19-1.52,0-.57.6-.8.57-1.41-.23-.61-.94-.61-1.13-1.18.23-.15.57-.11.79,0"/><path class="cls-1" d="M46.72,48.79c.41,0,.75-.3.75-.66s-.34-.66-.75-.66-.75.3-.75.66.33.66.75.66"/><path class="cls-1" d="M7.77,71.54c.41,0,.74-.32.74-.71s-.33-.71-.74-.71-.74.32-.74.71.33.71.74.71"/><path class="cls-1" d="M32.56,77.07h-.05l-.05-.06h0v.04s0,.02.02.02h0s-.08,0-.08,0h0s.02,0,.02-.02v-.09s0-.02-.02-.02h0s.08,0,.08,0c.02,0,.07,0,.07.04,0,.02-.03.03-.04.03l.05.06s0,0,0,0h0ZM32.46,77s.04,0,.04-.03c0-.02,0-.03-.03-.03-.02,0-.02,0-.02,0v.05Z"/><path class="cls-1" d="M32.66,76.97s-.02-.04-.05-.04c-.01,0-.02,0-.02.02,0,0,0,.02.02.03h.04s.03.03.03.05c0,.02-.01.04-.06.04-.02,0-.03,0-.04,0,0,0,0,0,0,0h0v-.05h0s.02.04.05.04c.03,0,.03-.02.03-.02,0,0-.01-.02-.03-.02h-.02s-.04-.04-.04-.05c0-.01,0-.04.05-.04.02,0,.03,0,.04,0,0,0,0,0,0,0h0v.04h0Z"/><path class="cls-1" d="M32.91,76.93s-.01,0-.02.01l-.05.12h0l-.04-.09h0l-.05.09h0l-.05-.12s0-.01-.02-.01h0s.07,0,.07,0h0s-.01,0-.01.01c0,0,0,0,0,0l.03.07.03-.06v-.02s-.01,0-.03,0h0s.08,0,.08,0h0s-.02,0-.02.01c0,0,0,0,0,.01l.02.07h0l.03-.07s0,0,0,0c0,0-.01,0-.02,0h0s.04,0,.04,0h0Z"/><path class="cls-1" d="M32.92,77.06s.05-.01.06-.05c0,0,0,0,0,0,0,0,0,0-.01,0-.02,0-.04,0-.04-.04,0-.01,0-.04.05-.04.02,0,.05.01.05.06,0,.04-.03.07-.11.08h0ZM32.97,77.01s0,0,0,0c0,0,0-.02,0-.02,0-.04,0-.05-.02-.05-.01,0-.01.01-.01.03,0,.03,0,.04.02.04"/><path class="cls-1" d="M33.06,76.97s.03,0,.05.01c.01,0,.02.02.02.04,0,.02-.02.05-.07.05-.02,0-.03,0-.03-.02,0,0,0-.01.01-.01.02,0,.03.02.05.02,0,0,.02,0,.02-.02,0-.01-.01-.02-.03-.02-.01,0-.03,0-.05,0l.02-.07h.08v.03h-.08Z"/><path class="cls-1" d="M78.36,23.33h0s-27.71-.01-27.71-.01h0s0,.01,0,.01l.02,21.18c0,2.16.92,4.05,2.18,4.63l10.66,6.77c.23.26.58.44.97.44.34,0,.64-.13.86-.34l10.82-6.87c1.27-.58,2.18-2.47,2.18-4.63l.02-21.18h0ZM77.58,44.79c-.14,1.6-.69,2.94-1.8,3.69l-10.45,6.64h-.06c-.22.17-.5.29-.8.29s-.6-.11-.82-.3l-10.43-6.63c-1.11-.75-1.65-2.09-1.8-3.69v-20.72h26.15v20.72Z"/><path class="cls-1" d="M68.23,54.19l.33-.16c-.14.05-.24.11-.33.16"/><path class="cls-1" d="M47.33,83.14l-2.61.3-.02-.17c.5-.09.64-.11.61-.34-.02-.18-.34-.65-.47-.86l-1.81.21c-.17.51-.27.81-.25.91.03.26.42.23.7.21l.02.17-1.64.19-.02-.17c.43-.11.52-.35.7-.88l1.36-3.91.23-.03,2.2,3.35c.45.68.6.9.99.84l.02.17ZM44.69,81.83l-1-1.55-.57,1.73,1.57-.18Z"/><path class="cls-1" d="M93.22,73.21c-.48-1.24-1.47-2.08-2.7-2.48-1.27-.28-2.62-.08-3.46.88-1.43,1.16-.44,3.08-.4,4.64,0,.32.04.56-.28.72-5.77-.52-11.13-1.96-16.86-2.56-1.32-.23-2.64-.17-3.89-.43l-1.6-.17c-4.97.16-9.94.44-14.6,1.64-.99.32-2.11.4-3.1.76-.72-.12-1.31.4-1.99.2l-1.31.3c-.12.02-.27.02-.44-.02-.64-1.64,1.27-2.64.67-4.25-.52-.92-1.55-1.8-2.74-1.64-1.35-.16-2.54.6-3.18,1.64-.91,2,.24,4.08.6,6.05-.08.64.64,1.36,0,1.88-1.27-.88-2.94-1.36-4.49-.92-.48.24-1.35-.08-1.59.48,1.71.92,3.9.8,5.8.72.24-.08.4-.12.6.04.16,1.04-.2,2.44.44,3.36.71.96,1.91,1.2,3.06,1.32,3.66-.12,6.92-1.2,10.26-2.04.52-.04.91-.32,1.47-.32,1.79-.4,3.74-.72,5.65-.76-.84,1.08-1.31,2.28-1.67,3.6-.48,1.08.83,1.24,1.23,1.84-1.23.36-2.11,1.2-3.26,1.68-2.55-.08-4.69.88-7.08,1.16-.04.52.83.36.92.88-.12.36-.48.4-.76.6-.04.24,0,.28.24.32.24-.28.76-.08.99-.36.8,0,1.47-.24,2.23-.28.68-.28,1.43-.32,2.03-.8.83-.24,1.35-.8,2.19-1.04,1.19,0,2.27-.4,3.38-.48v.24c-.92,1.48-1.87,3-2.82,4.4-.16.28.04.56.28.64.56.16,1.11,0,1.55-.24.83-1.44,1.59-2.8,2.27-4.29.28-1.36,1.27-2.08,2.27-3,.16-.08.4-.32.56-.08-.79.92-1.31,1.8-1.91,2.8-.32,1.12-.4,2.56.6,3.49.48.4,1.19.28,1.83.32,1.55-.8,3.54.48,4.73-1.04.71-.12.83.72,1.23,1.12.68.2,1.39.88,2.07.4-.04-.44-.52-.84-.76-1.24-.48-.84-1.07-1.52-1.51-2.28-.2-.56-.56-.92-.64-1.48.72.24,1.35.72,2.15.84.68.28,1.51.24,2.15.64.52.68,1.31,1.08,1.99,1.52.99.48,2.11.56,3.14.96.4.04,1,.36,1.27,0-.16-.2-.36-.32-.6-.44-.12-.52.72-.24.99-.64-.1-.2-.27-.28-.46-.3-.57-.31-1.99-.41-2.36-.62-.48-.08-.92-.28-1.39-.44-2.39,0-3.7-2.16-5.61-2.96.44-.4,1.11-.72,1.39-1.32.36-.56.48-1.48.12-2.12-.36-1.24-1.95-1.08-2.86-1.76l.12-.12c1.55-.08,2.9.28,4.29.56,3.82.52,7.36,1.96,11.33,2.04,2.19,0,4.93.12,6-2,.2-1.24.44-2.48.64-3.73.48-2,1.79-3.84,1.59-6.05M50.28,91.48l-.55-.52c.28-.36.87-.16,1.31-.4,1.03-.32,2.23-.72,3.38-.48-1.19.96-2.74,1.08-4.14,1.4M75.1,90.84c.95.43,2.86.85,4.24,1.01-.12.54-1.09.03-.98.8-1.23-.48-2.66-.72-3.58-1.68.08-.04.16-.16.32-.12M37.79,73.82c.12-.72.28-1.48.95-2.01.95-.52,2.27-.4,3.14.12.28.16.48.4.64.76.2.68-.12,1.4-.6,1.8h-.4c0-.64,0-1.28.24-1.8-.04-.48-.44-.52-.75-.72-.68-.2-1.27.12-1.79.4-.4.48-.76,1.08-.51,1.76.28.44.04,1.04.2,1.52l-.12.16c-.47-.52-1.11-1.08-.99-2M39.66,74.96c.6.44,1.43.24,2.15.36.12.44.12,1-.2,1.36-.68-.16-1.55-.08-1.91-.72.08-.28-.12-.68-.04-1M39.54,73.62c.12-.32,0-.8.44-.88.28-.08.72-.08.76.24-.04.48-.08.96-.2,1.4-.56.04-.84-.28-.99-.76M58.19,86.47c-.2-1.4.36-2.6,1.27-3.61.56-.12,1.19-.24,1.71.08-1.03.28-2.35.52-2.58,1.84.04.52-.12.8.12,1.24.44.76,1.43.44,1.99,1.04,0,.2-.16.44-.36.48-.68-.4-1.51-.56-2.15-1.08M56.76,89.24c.95-.4,1.95-1.24,3.02-.88-.75.6-1.99.84-3.02.88M60.54,89.64c-.56,1.28-1.19,2.52-1.95,3.76-.08.2-.4.24-.64.28,0-.56.56-1,.79-1.48.83-1.08,1.07-2.24,2.03-3.28.24.24-.24.4-.24.72M61.53,87.31v.16h-.08v-.2h.16s-.12,0-.16.04h.08ZM61.17,86.23c-.68-.08-1.31-.28-1.91-.48-.4-.4,0-.84,0-1.28.56-.88,2.15-1.32,2.9-.52-.12.88-.44,1.64-.99,2.28M62.05,86.23c.12-.52.36-1.2.64-1.68-.04.52-.28,1.24-.64,1.68M62.49,82.99c-.52-.12-.8-.72-1.35-.72.48-.16.95-.12,1.51-.04.2.28-.12.52-.16.76M62.96,84.19h-.04v-.44h.04v.44ZM63,86.03c-.04-.16.08-.36.12-.56.2-.2.4.16.48.28-.12.2-.36.32-.6.28M63.6,83.55c.2-.56.24-1.04.6-1.48.4,0,.75,0,1.07.16.08.8,1.08,1.88,0,2.57-.36.16-.87.52-1.27.16-.52-.44-.6-.84-.4-1.4M66.5,82.43c-.08-.36.36-.08.52-.24l1.23.08c-.64-.08-1.43,1.4-1.75.16M68.49,82.95c-.48.16-.83.72-1.31.84.24-.44.83-.88,1.31-.84M66.82,85.55h-.04v-.12h.04v.12ZM66.9,87.87c-.04.08.04.2-.08.28l-.91-.72c.44-.08.76.12.99.44M65.83,86.63c.08-.08.28-.08.36,0h-.36ZM65.27,86.03c.16-.24.36-.6.64-.6,0,.04.04.08.08.12-.24.2-.44.4-.72.48M64.35,85.95h-.16l.24-.24c.12.08-.04.16-.08.24M64.47,87.47c.52-.56.99.32,1.19.76.6.88,2.15,1.68,1.55,2.88-.76.68-1.95.04-2.78.56-.44-.04-1.19.08-1.43-.36.44-1.28.83-2.72,1.47-3.85M63.36,88.24l.2-.32c-.32.96-.8,1.96-1.31,2.88-.24-.96.76-1.72,1.11-2.56M65.11,93c-.76.04-1.91.48-2.62-.16.04-.32-.32-.48-.28-.8.64-.24,1.19.52,1.79-.04.91.04,1.87-.12,2.78.08.44.12,1.11-.72,1.19.12-.32,1.32-1.91.4-2.86.8M67.42,87.11h.08v.12h-.08v-.12ZM67.65,89.76c.04.4.44.56.2.92-.08-.16-.32-.52-.2-.92M68.77,92.16l-.2.08c-.2-.16-.12-.6-.08-.84.24.2.44.48.28.76M70.76,93.12c-.04.12-.24.12-.32.04-1.19-1.52-1.75-3.12-2.51-4.8l.16-.04c.95,1.56,1.71,3.28,2.67,4.81M72.23,89.44c-.08.04-.08.12-.08.16-1.15.04-1.91-.64-2.78-1.24l-.04-.2c1.07.08,1.95.76,2.9,1.28M71.19,84.11c.48.12.52.64.56,1.04-.04.88-.52,1.64-1.35,1.96-.44.24-1.11.32-1.55.16.95-.04,1.99-.4,2.39-1.36l-.04-1.8ZM70.32,83.95c.2.56.56,1.08.36,1.76-.4.76-1.19.76-1.91.92-.36.04-.64-.08-.91-.28.04-.16-.04-.28-.16-.4.12-.52-.92-1.04-.2-1.48.63-.6,2.15-1.96,2.82-.52M90.52,81.03c-.32.4-.04,1.04-.44,1.4,0,.72-.6,1.08-1.11,1.36-4.73,1.04-9.38-.56-13.96-1.36-6.4-1.4-13.88-1.8-20.4-.32-3.06.56-6.04,1.29-8.99,2.12-1.83.24-3.82.52-5.57-.04-1.43-.68-.84-2.52-1.27-3.8.08-1-.28-1.8-.32-2.77-.12-.32-.2-.72-.16-1.04.59.08,1.19.52,1.83.68,3.34.64,6.32-.44,9.42-1,2.98-.64,6.04-1.16,9.19-1.4,3.58-.04,7.24-.24,10.66.36,1.11.04,2.07.32,3.14.4,2.23.28,4.3.88,6.56,1.04.36.12.79.12,1.2.2,3.58.56,7.59,1.56,11.01,0,0,1.44-.6,2.76-.8,4.17M89.41,76.14c.04.64-.56.48-.88.72h-.95c-.2-.32-.12-.8-.12-1.12.64.12,1.35.12,1.95.4M88.97,75.14c.44-.44-.12-2.96,1.11-1.32,0,.32.04.8-.28,1.04-.2.16-.52.48-.83.28M92.19,74.74c-.36.72-.92,1.24-1.71,1.36.04-.96.91-1.64.6-2.72-.52-.76-1.55-1-2.51-.8-.36.24-.2.64-.32,1l-.16,1.32c-.8,0-.84-.72-1.07-1.28.04-.84.4-1.68,1.23-2.08.64-.32,1.67-.28,2.31.08.52.12,1.11.36,1.31.84.6.56.44,1.56.32,2.28"/></svg>