<svg width="768" height="820" viewBox="0 0 768 820" fill="none" xmlns="http://www.w3.org/2000/svg">
    <rect width="86" height="843" fill="#F9F9F9"/>
    <path opacity="0.95" fill-rule="evenodd" clip-rule="evenodd" d="M685.427 374.834L494.625 888H876.36C847.222 882.624 815.41 794.046 815.41 794.046L685.427 374.834Z" fill="#EEEEEE"/>
    <path opacity="0.95" fill-rule="evenodd" clip-rule="evenodd" d="M685.216 374.834L801.766 0L455.134 0.00454813L685.216 374.834Z" fill="white"/>
    <path fill-rule="evenodd" clip-rule="evenodd" d="M495.541 888C525.654 888 553.628 802.404 556.323 794.132C559.06 785.732 686.224 375.305 686.224 375.305L610.14 129.974C581.068 28.6346 531.601 0 456.231 0H69.0136V888H495.541Z" fill="#EEEEEE"/>
    <path fill-rule="evenodd" clip-rule="evenodd" d="M122.189 93.315C122.189 93.315 102.346 12.7029 72.1624 0L49.9995 0V888L471.223 887.999C395.537 887.999 328.804 843.943 307.413 760.154L122.189 93.315Z" fill="#F9F9F9"/>
</svg>
