<svg version="1.1" xmlns="http://www.w3.org/2000/svg" width="80px" height="32px" viewBox="0 0 80 32">
<style type="text/css">.st0{fill:#D5002B;}</style>
<g><path class="st0" d="M29.01,28.59L20.95,4.68C19.82,1.04,17.9,0,14.94,0H0c1.18,0.46,1.96,3.36,1.96,3.36l7.2,24.03 c0.84,3,3.44,4.6,6.38,4.6h15.84C30.25,31.79,29.01,28.59,29.01,28.59z"/><path class="st0" d="M65.04,0c-2.94,0-4.88,1.04-6.02,4.68l-8.06,23.91c0,0-1.24,3.18-2.38,3.38V0h-17.2v31.99h17.22l0,0h15.84 c2.96,0,5.54-1.6,6.38-4.6l7.22-24.03c0,0,0.78-2.9,1.96-3.36C80,0,65.04,0,65.04,0z"/></g>
</svg>
