<svg width="80" height="40" viewBox="0 0 80 40" fill="none" xmlns="http://www.w3.org/2000/svg">
<g clip-path="url(#clip0_3649_40075)">
<g clip-path="url(#clip1_3649_40075)">
<path d="M19.7303 11.7709L18.8923 13.9705C20.254 14.4943 21.3015 15.5417 21.7729 16.9034L23.2917 16.3273L23.9725 16.0655C23.9202 16.0131 23.9202 15.9084 23.8678 15.856C23.1869 13.9705 21.6681 12.5041 19.7303 11.7709Z" fill="#FE9596"/>
<path d="M18.6828 14.6514L17.7925 17.1129C18.2115 17.27 18.5781 17.6366 18.6828 18.108L21.1444 17.1653C20.7254 16.0131 19.835 15.1227 18.6828 14.6514Z" fill="#FE9596"/>
<path d="M21.9824 9.41405C21.6158 9.20456 21.2491 9.04744 20.8302 8.89032L20.0969 10.8805L20.0446 11.09C22.0871 11.8756 23.7107 13.3944 24.601 15.3846C24.6534 15.5417 24.7058 15.6988 24.7581 15.856L26.9578 15.018C26.8007 14.6514 26.6436 14.2324 26.4865 13.9181C25.4914 11.9803 23.9202 10.4091 21.9824 9.41405Z" fill="#FE9596"/>
<path d="M28.4243 12.347C27.3768 10.5139 25.858 8.94273 24.0249 7.79052C23.2917 7.31916 22.5061 6.90018 21.6681 6.58594L21.092 8.15713C21.6158 8.36662 22.1395 8.57612 22.6632 8.89036C24.5487 9.93782 26.0675 11.509 27.115 13.4468C27.3244 13.8658 27.5339 14.3372 27.6911 14.8085L29.3146 14.2324C29.0528 13.4992 28.7909 12.9231 28.4243 12.347Z" fill="#FE9596"/>
<path d="M9.88403 18.2651H12.2932C12.4503 15.8036 14.3881 13.8134 16.8497 13.6563V11.2995C13.0788 11.4566 10.0412 14.4943 9.88403 18.2651Z" fill="#D5002B"/>
<path d="M16.8496 10.5663V8.20947C11.3504 8.36659 6.95107 12.7659 6.74158 18.2651H9.09837C9.30786 14.1276 12.6597 10.7234 16.8496 10.5663Z" fill="#D5002B"/>
<path d="M13.0264 18.3175H15.645C15.7498 17.689 16.2211 17.1653 16.8496 17.0606V14.4419C14.8071 14.5466 13.1311 16.2226 13.0264 18.3175Z" fill="#D5002B"/>
<path d="M17.4781 26.4877V28.8445C22.925 28.6874 27.3767 24.3404 27.5862 18.8936H25.2294C25.0199 23.0311 21.668 26.3306 17.4781 26.4877Z" fill="#D5002B"/>
<path d="M9.15086 18.8936H6.79407C7.00356 24.3404 11.4553 28.6874 16.9021 28.8445V26.4877C14.8595 26.383 12.9741 25.545 11.5077 24.1309C10.0412 22.7692 9.20323 20.8838 9.15086 18.8936Z" fill="#D5002B"/>
<path d="M24.4439 18.3175C24.3915 17.5319 24.2867 16.7987 24.0249 16.1179L23.344 16.3797L21.8252 16.9558C21.9823 17.3748 22.0871 17.8462 22.0871 18.3175H24.4439Z" fill="#D5002B"/>
<path d="M20.0968 10.8805L20.83 8.89032C19.7826 8.52371 18.6827 8.26184 17.4781 8.26184V10.6186C18.3685 10.671 19.2065 10.8281 19.9921 11.1424L20.0968 10.8805Z" fill="#D5002B"/>
<path d="M21.3539 18.8936H18.6828C18.5257 19.4697 18.0544 19.8887 17.5306 19.9935V22.6121C19.5208 22.5074 21.1444 20.9362 21.3539 18.8936Z" fill="#D5002B"/>
<path d="M15.6974 18.8936H13.0264C13.1311 19.8363 13.5501 20.779 14.2309 21.4599C14.9118 22.1408 15.8545 22.5597 16.8496 22.6645V20.0458C16.2735 19.8887 15.8545 19.4697 15.6974 18.8936Z" fill="#D5002B"/>
<path d="M16.8497 25.7021V23.3453C15.6451 23.293 14.5452 22.7692 13.7073 21.9313C12.8693 21.0933 12.3979 20.0458 12.2932 18.8936H9.88403C9.98878 20.6743 10.722 22.3502 12.0313 23.6072C13.2883 24.9165 15.0166 25.6498 16.8497 25.7021Z" fill="#D5002B"/>
<path d="M24.4438 18.8936H22.0346C21.8251 21.3028 19.8873 23.1882 17.4781 23.3453V25.7021C21.1966 25.545 24.2343 22.6121 24.4438 18.8936Z" fill="#D5002B"/>
<path d="M24.7581 15.856C25.0199 16.6416 25.2294 17.4272 25.2294 18.3175H27.5862C27.5338 17.1653 27.3243 16.0655 26.9577 15.018L24.7581 15.856Z" fill="#D5002B"/>
<path d="M18.6828 14.6514C18.3162 14.4943 17.8973 14.4419 17.5306 14.3895V17.0082C17.6354 17.0082 17.6878 17.0606 17.7925 17.1129L18.6828 14.6514Z" fill="#D5002B"/>
<path d="M19.7302 11.7709C19.0493 11.509 18.2637 11.3519 17.4781 11.2995V13.6563C18.0019 13.7087 18.4732 13.8134 18.8922 13.9705L19.7302 11.7709Z" fill="#D5002B"/>
<path d="M34.6566 4.90998C34.6566 4.59574 34.3947 4.33388 34.0805 4.28151C24.8628 3.02455 18.7351 0.563011 17.5829 0.0392799C17.4258 -0.0130933 17.2163 -0.0130933 17.0592 0.0392799C15.907 0.510638 9.77932 2.97218 0.561646 4.28151C0.247407 4.33388 0.0379147 4.59574 0.0379147 4.85761C-0.0668316 8.15712 -0.223951 19.5221 3.65166 26.802C6.63693 32.5106 8.10338 33.8723 10.8268 36.1768L11.0363 36.3863C12.817 37.9574 15.4356 40 17.2687 40C18.8399 40 21.4062 38.5859 22.506 37.6432C26.015 34.6056 28.9479 30.9394 31.0428 26.8543C34.9184 19.5221 34.8137 8.20949 34.6566 4.90998ZM28.4242 18.527C28.4242 24.6023 23.5011 29.5777 17.4258 29.6301C11.2981 29.6825 6.27032 24.7594 6.16558 18.6318C6.1132 12.5041 11.0363 7.47627 17.1639 7.37152C18.5256 7.37152 19.8873 7.63339 21.0919 8.10475L21.668 6.53355C22.506 6.84779 23.2916 7.26678 24.0248 7.73813C25.8055 8.89034 27.3243 10.4615 28.4242 12.2946C28.7384 12.8707 29.0526 13.4992 29.3145 14.1277L27.6909 14.7038C28.1623 15.9083 28.4242 17.2177 28.4242 18.527Z" fill="#D5002B"/>
<path d="M18.6827 18.2651H21.3014C21.3014 17.8985 21.1967 17.5319 21.0919 17.1653L18.6304 18.108C18.6827 18.1604 18.6827 18.2127 18.6827 18.2651Z" fill="#D5002B"/>
<path d="M56.0772 12.3993L53.6681 4.96236C53.3538 3.81015 52.7777 3.49591 51.8874 3.49591H47.4357C47.8023 3.65303 48.0118 4.54337 48.0118 4.54337L50.1591 11.9804C50.3686 12.8707 51.1542 13.4468 52.0445 13.3944H56.7581C56.4438 13.3421 56.0772 12.3993 56.0772 12.3993Z" fill="#D5002B"/>
<path d="M67.3374 3.49591C66.447 3.49591 65.8709 3.81015 65.5567 4.96236L63.1475 12.3993C63.1475 12.3993 62.7809 13.3944 62.4143 13.4468H67.1279C68.0182 13.4992 68.8038 12.8707 69.0133 12.0327L71.1606 4.59575C71.1606 4.59575 71.3701 3.7054 71.7367 3.54828H67.3374V3.49591Z" fill="#D5002B"/>
<path d="M62.2572 3.54828H57.0199V13.3944H62.2572V3.54828Z" fill="#D5002B"/>
<path d="M42.6697 26.6972C45.0265 26.6972 46.4406 25.2831 46.4406 22.5597C46.4406 19.8363 45.0265 18.3699 42.6697 18.3699C40.3129 18.3699 38.8988 19.8887 38.8988 22.5597C38.8464 25.2308 40.3129 26.6972 42.6697 26.6972ZM42.6697 19.9934C43.9266 19.9934 44.5551 20.9885 44.5551 22.5597C44.5551 24.1309 43.9266 25.0736 42.6697 25.0736C41.4127 25.0736 40.7843 24.1309 40.7843 22.5597C40.7843 20.9885 41.4127 19.9934 42.6697 19.9934Z" fill="#444444"/>
<path d="M49.5306 21.5646C49.7401 21.9836 50.0019 22.3502 50.3162 22.7168L53.1443 26.4877H54.8203V18.527H52.9872V21.7741C52.9872 22.7692 53.0396 23.4501 53.0396 23.4501H52.9348C52.7253 23.0834 52.5158 22.7168 52.254 22.4026L49.4258 18.527H47.6975V26.4877H49.5306V23.2929C49.5829 22.7692 49.5306 22.1407 49.5306 21.5646Z" fill="#444444"/>
<path d="M61.4717 24.9165H58.3293V18.527H56.4962V26.5401H61.4717V24.9165Z" fill="#444444"/>
<path d="M64.2997 18.527H62.4667V26.4877H64.2997V18.527Z" fill="#444444"/>
<path d="M73.0985 26.5401V18.527H71.2654V21.7741C71.2654 22.7692 71.2654 23.4501 71.2654 23.4501H71.213C71.0035 23.0834 70.794 22.7168 70.5322 22.4026L67.704 18.527H66.0281V26.4877H67.8611V23.2929C67.8611 22.7168 67.8611 22.0884 67.8088 21.5122H67.8611C68.0706 21.9312 68.3325 22.2978 68.6467 22.6645L71.4749 26.4353H73.0985V26.5401Z" fill="#444444"/>
<path d="M80.1688 20.0982V18.527H74.7744V26.5401H80.1688V24.9165H76.6598V23.2406H79.7499V21.6694H76.6598V20.0982H80.1688Z" fill="#444444"/>
<path d="M41.3604 31.8821H42.5126V32.0916C42.5126 32.563 42.146 32.9296 41.4127 32.9296C40.4176 32.9296 40.051 32.144 40.051 31.1489C40.051 29.7348 40.7842 29.3682 41.4127 29.3682C41.9365 29.3682 42.4078 29.7348 42.5126 30.2586L43.7695 29.6301C43.4029 28.7397 42.4602 28.1636 41.5175 28.216C39.8415 28.216 38.7941 29.2635 38.7941 31.1489C38.7941 33.0867 39.8415 34.0294 41.2556 34.0294C41.8841 34.0818 42.4602 33.8199 42.7744 33.2962L42.9839 33.9247H43.7695V30.9918H41.3604V31.8821V31.8821Z" fill="#444444"/>
<path d="M48.0642 31.6203C48.0642 32.4059 47.8547 32.8772 47.0691 32.8772C46.2835 32.8772 46.074 32.4059 46.074 31.6203V28.2684H44.7646V31.9869C44.7646 33.5057 45.8121 33.977 47.0691 33.977C48.326 33.977 49.3735 33.5057 49.3735 31.9869V28.2684H48.1165V31.6203H48.0642Z" fill="#444444"/>
<path d="M51.6779 28.2684L49.6877 33.8199H51.0494L51.4684 32.6677H53.5634L53.9823 33.8199H55.344L53.3015 28.2684H51.6779ZM51.7827 31.6203L51.9922 30.9918C52.1493 30.468 52.3064 29.9443 52.4635 29.4206H52.5159C52.6206 29.9443 52.7778 30.468 52.9349 30.9918L53.1444 31.6203H51.7827Z" fill="#444444"/>
<path d="M59.9005 32.1964C59.7958 31.7251 59.4292 31.4108 58.9578 31.4108H59.0102C59.691 31.3584 60.2148 30.73 60.1624 29.9967C60.1624 28.7398 59.3768 28.3208 58.1198 28.3208H55.9725V33.8724H57.2295V31.9346H57.7532C58.1722 31.9346 58.3817 32.0393 58.4864 32.5107L58.6959 33.3486C58.7483 33.5581 58.8531 33.7676 59.0102 33.9247H60.4243C60.2671 33.7676 60.1624 33.5581 60.11 33.3486L59.9005 32.1964ZM58.0675 30.8347H57.2295V29.3683H58.0675C58.5912 29.3683 58.8531 29.5778 58.8531 30.1015C58.8531 30.6252 58.5912 30.8347 58.0675 30.8347Z" fill="#444444"/>
<path d="M63.3048 28.2684H61.2622V33.8199H63.2524C64.8236 33.8199 66.0282 33.0343 66.0282 30.9918C66.0282 29.054 64.8236 28.2684 63.3048 28.2684ZM63.0953 32.7201H62.5192V29.3682H63.1476C64.0904 29.3682 64.6665 29.7872 64.6665 31.0441C64.6665 32.3535 64.0904 32.7201 63.0953 32.7201Z" fill="#444444"/>
<path d="M68.2279 28.2684H66.9709V33.8199H68.2279V28.2684Z" fill="#444444"/>
<path d="M70.8465 28.2684L68.8563 33.8199H70.218L70.637 32.6677H72.7319L73.0985 33.8199H74.4603L72.4177 28.2684H70.8465ZM71.0036 31.6203L71.2131 30.9918C71.3702 30.468 71.5274 29.9443 71.6845 29.4206H71.7368C71.8416 29.9443 71.9987 30.468 72.1558 30.9918L72.3653 31.6203H71.0036Z" fill="#444444"/>
<path d="M78.8595 30.5204C78.8595 31.2013 78.8595 31.6726 78.8595 31.6726H78.8071C78.65 31.4108 78.5452 31.1489 78.3357 30.9394L76.3979 28.2684H75.1934V33.8199H76.4503V31.6203C76.4503 31.2013 76.4503 30.7823 76.3979 30.3633H76.4503C76.6074 30.6775 76.7646 30.9394 76.974 31.2013L78.9642 33.8199H80.1164V28.2684H78.8595V30.5204Z" fill="#444444"/>
<path d="M27.6909 14.7561C27.5338 14.2848 27.3243 13.8134 27.1148 13.3944C26.1197 11.509 24.5486 9.93781 22.6631 8.83797C22.1394 8.5761 21.668 8.31424 21.0919 8.10475C19.8873 7.63339 18.5256 7.37152 17.1639 7.37152C11.0363 7.42389 6.1132 12.4517 6.16558 18.6317C6.21795 24.7594 11.2458 29.6825 17.4258 29.6301C23.5011 29.5777 28.4242 24.6023 28.4242 18.527C28.4242 17.2177 28.1623 15.9083 27.6909 14.7561ZM16.8497 8.20949V10.5663C12.6598 10.7234 9.30797 14.0753 9.15085 18.2651H6.79405C6.8988 12.8183 11.3505 8.36661 16.8497 8.20949ZM16.8497 28.8445C11.4029 28.6874 6.95117 24.3404 6.74168 18.8936H9.09847C9.20322 20.8838 10.0412 22.7692 11.4553 24.1309C12.8693 25.545 14.8071 26.383 16.8497 26.4877V28.8445V28.8445ZM9.88407 18.8936H12.2932C12.398 20.0458 12.8693 21.1457 13.7073 21.9313C14.5453 22.7692 15.6451 23.293 16.8497 23.3453V25.7021C15.0166 25.6498 13.2883 24.8642 12.0314 23.6072C10.722 22.4026 9.98882 20.6743 9.88407 18.8936ZM16.8497 22.6645C15.8546 22.6121 14.9119 22.1408 14.231 21.4599C13.5502 20.779 13.0788 19.8887 13.0265 18.8936H15.6975C15.8546 19.4697 16.326 19.8887 16.8497 19.9935V22.6645V22.6645ZM16.8497 17.0606C16.2212 17.1653 15.7499 17.689 15.6451 18.3175H13.0265C13.1836 16.2226 14.8071 14.599 16.9021 14.4419V17.0606H16.8497ZM16.8497 13.7087C14.3882 13.8658 12.398 15.856 12.2932 18.3175H9.88407C10.0412 14.5466 13.0788 11.509 16.8497 11.3519V13.7087V13.7087ZM17.4782 11.3519C18.2638 11.4043 19.0494 11.5614 19.7302 11.8232C21.6157 12.5565 23.1869 14.0229 23.9201 15.9083C23.9724 15.9607 23.9725 16.0655 24.0248 16.1178C24.2867 16.7987 24.4438 17.5319 24.4438 18.3175H22.087C22.0346 17.8462 21.9823 17.3748 21.8251 16.9558C21.3538 15.5941 20.3063 14.4943 18.9446 14.0229C18.4733 13.8658 18.0019 13.761 17.5306 13.7087V11.3519H17.4782ZM17.4782 14.3895C17.8972 14.4419 18.2638 14.4943 18.6304 14.6514C19.7826 15.0704 20.6729 16.0131 21.0919 17.1653C21.1967 17.5319 21.3014 17.8985 21.3014 18.2651H18.6828C18.6828 18.2128 18.6828 18.1604 18.6304 18.108C18.5256 17.6367 18.159 17.27 17.74 17.1129C17.6353 17.0606 17.5829 17.0606 17.4782 17.0082V14.3895ZM17.4782 20.0458C18.0543 19.9411 18.5256 19.4697 18.6304 18.946H21.3014C21.0919 20.9362 19.4684 22.5074 17.4782 22.6645V20.0458V20.0458ZM17.4782 23.3453C19.8873 23.1882 21.8252 21.3028 22.0346 18.8936H24.4438C24.2343 22.6121 21.1967 25.545 17.4782 25.7021V23.3453ZM17.4782 28.8445V26.4877C21.6157 26.3306 24.9675 23.0311 25.2294 18.8936H27.5862C27.3767 24.3404 22.9774 28.7398 17.4782 28.8445ZM25.2294 18.3175C25.177 17.4795 25.0199 16.6416 24.758 15.856C24.7057 15.6989 24.6533 15.5417 24.6009 15.3846C23.7106 13.3944 22.087 11.8232 20.0445 11.09C19.2589 10.7758 18.4209 10.6187 17.5306 10.5663V8.20949C18.6828 8.26186 19.835 8.47136 20.8824 8.83797C21.3014 8.99509 21.668 9.15221 22.0346 9.3617C23.9725 10.3568 25.5436 11.928 26.4864 13.8658C26.6959 14.2324 26.853 14.599 26.9577 14.9656C27.3243 16.0131 27.5862 17.1129 27.5862 18.2651H25.2294V18.3175Z" fill="white"/>
</g>
</g>
<defs>
<clipPath id="clip0_3649_40075">
<rect width="80" height="40" fill="white"/>
</clipPath>
<clipPath id="clip1_3649_40075">
<rect width="80.1688" height="40" fill="white"/>
</clipPath>
</defs>
</svg>
